<svg id="svg" version="1.1" xmlns="http://www.w3.org/2000/svg" xmlns:xlink="http://www.w3.org/1999/xlink" width="400" height="400" viewBox="0, 0, 400,400"><g id="svgg"><path id="path0" d="M184.000 87.200 C 184.000 87.437,182.525 87.600,180.376 87.600 C 178.063 87.600,176.842 87.745,177.000 88.000 C 177.152 88.246,176.479 88.400,175.247 88.400 C 174.147 88.400,173.136 88.580,173.000 88.800 C 172.864 89.020,171.953 89.200,170.976 89.200 C 169.999 89.200,169.200 89.380,169.200 89.600 C 169.200 89.820,168.919 90.000,168.576 90.000 C 168.233 90.000,168.064 89.820,168.200 89.600 C 168.336 89.380,168.257 89.200,168.024 89.200 C 167.791 89.200,167.600 89.380,167.600 89.600 C 167.600 89.820,167.330 90.000,167.000 90.000 C 166.670 90.000,166.400 90.180,166.400 90.400 C 166.400 90.969,164.664 90.896,164.021 90.300 C 163.590 89.900,163.539 89.900,163.765 90.300 C 163.986 90.691,162.682 90.800,157.800 90.800 C 153.737 90.800,151.639 90.940,151.800 91.200 C 151.945 91.434,151.530 91.600,150.800 91.600 C 150.070 91.600,149.655 91.434,149.800 91.200 C 149.936 90.980,149.857 90.800,149.624 90.800 C 149.391 90.800,149.200 90.980,149.200 91.200 C 149.200 91.420,148.570 91.600,147.800 91.600 C 147.030 91.600,146.400 91.780,146.400 92.000 C 146.400 92.220,145.680 92.400,144.800 92.400 C 143.920 92.400,143.200 92.580,143.200 92.800 C 143.200 93.020,142.570 93.200,141.800 93.200 C 141.030 93.200,140.400 93.380,140.400 93.600 C 140.400 93.820,139.860 94.000,139.200 94.000 C 138.540 94.000,138.000 94.180,138.000 94.400 C 138.000 94.620,137.460 94.800,136.800 94.800 C 136.140 94.800,135.600 94.980,135.600 95.200 C 135.600 95.420,135.161 95.600,134.624 95.600 C 134.087 95.600,133.536 95.780,133.400 96.000 C 133.264 96.220,132.803 96.400,132.376 96.400 C 131.949 96.400,131.600 96.580,131.600 96.800 C 131.600 97.020,131.240 97.200,130.800 97.200 C 130.360 97.200,130.000 97.380,130.000 97.600 C 130.000 97.820,129.640 98.000,129.200 98.000 C 128.760 98.000,128.400 98.180,128.400 98.400 C 128.400 98.620,128.040 98.800,127.600 98.800 C 127.160 98.800,126.800 98.980,126.800 99.200 C 126.800 99.420,126.440 99.600,126.000 99.600 C 125.560 99.600,125.200 99.780,125.200 100.000 C 125.200 100.220,124.880 100.400,124.488 100.400 C 124.097 100.400,123.517 100.760,123.200 101.200 C 122.871 101.657,122.165 102.000,121.554 102.000 C 120.967 102.000,120.390 102.250,120.272 102.556 C 119.993 103.283,117.732 104.400,116.539 104.400 C 116.022 104.400,115.600 104.580,115.600 104.800 C 115.600 105.029,114.400 105.200,112.800 105.200 C 111.200 105.200,110.000 105.029,110.000 104.800 C 110.000 104.580,109.809 104.400,109.576 104.400 C 109.343 104.400,109.264 104.580,109.400 104.800 C 109.551 105.044,108.937 105.200,107.824 105.200 C 106.821 105.200,106.000 105.020,106.000 104.800 C 106.000 104.580,104.999 104.400,103.776 104.400 C 102.396 104.400,101.647 104.248,101.800 104.000 C 101.946 103.764,101.503 103.600,100.720 103.600 C 99.826 103.600,99.229 103.339,98.893 102.800 C 98.618 102.360,98.045 102.000,97.620 102.000 C 97.195 102.000,96.736 101.820,96.600 101.600 C 96.464 101.380,96.003 101.200,95.576 101.200 C 95.067 101.200,94.800 100.925,94.800 100.400 C 94.800 99.938,94.533 99.600,94.169 99.600 C 93.821 99.600,92.846 98.880,92.000 98.000 C 91.154 97.120,90.179 96.400,89.831 96.400 C 89.484 96.400,89.200 96.220,89.200 96.000 C 89.200 95.780,88.480 95.600,87.600 95.600 C 86.720 95.600,86.000 95.780,86.000 96.000 C 86.000 96.220,85.717 96.400,85.371 96.400 C 84.563 96.400,83.600 97.363,83.600 98.171 C 83.600 98.517,83.420 98.800,83.200 98.800 C 82.980 98.800,82.800 99.160,82.800 99.600 C 82.800 100.040,82.620 100.400,82.400 100.400 C 82.180 100.400,82.000 100.940,82.000 101.600 C 82.000 102.260,81.820 102.800,81.600 102.800 C 81.380 102.800,81.200 103.790,81.200 105.000 C 81.200 106.210,81.020 107.200,80.800 107.200 C 80.276 107.200,80.276 112.276,80.800 112.600 C 81.020 112.736,81.200 113.827,81.200 115.024 C 81.200 116.221,81.380 117.200,81.600 117.200 C 81.820 117.200,82.000 117.614,82.000 118.120 C 82.000 118.626,82.225 119.282,82.500 119.579 C 82.902 120.012,82.896 120.059,82.470 119.817 C 82.032 119.568,82.031 119.661,82.467 120.358 C 82.756 120.821,83.129 121.200,83.296 121.200 C 83.463 121.200,83.600 121.560,83.600 122.000 C 83.600 122.440,83.780 122.800,84.000 122.800 C 84.220 122.800,84.400 123.120,84.400 123.512 C 84.400 123.903,84.760 124.483,85.200 124.800 C 86.365 125.640,86.185 126.000,84.600 126.000 C 83.830 126.000,83.200 125.820,83.200 125.600 C 83.200 125.380,82.300 125.200,81.200 125.200 C 80.100 125.200,79.200 125.020,79.200 124.800 C 79.200 124.580,78.469 124.400,77.576 124.400 C 76.596 124.400,76.051 124.242,76.200 124.000 C 76.336 123.780,76.077 123.600,75.624 123.600 C 75.171 123.600,74.800 123.420,74.800 123.200 C 74.800 122.980,74.440 122.800,74.000 122.800 C 73.560 122.800,73.200 122.620,73.200 122.400 C 73.200 122.180,72.345 121.997,71.300 121.994 C 69.926 121.989,69.566 121.880,70.000 121.600 C 70.421 121.328,70.447 121.210,70.087 121.206 C 69.272 121.196,66.800 123.890,66.800 124.787 C 66.800 125.234,66.620 125.600,66.400 125.600 C 66.159 125.600,66.000 127.267,66.000 129.800 C 66.000 132.333,66.159 134.000,66.400 134.000 C 66.620 134.000,66.800 134.810,66.800 135.800 C 66.800 136.790,66.980 137.600,67.200 137.600 C 67.420 137.600,67.600 138.370,67.600 139.312 C 67.600 140.565,67.814 141.178,68.400 141.600 C 68.840 141.917,69.200 142.497,69.200 142.888 C 69.200 143.280,69.380 143.600,69.600 143.600 C 69.820 143.600,70.000 143.888,70.000 144.240 C 70.000 144.591,70.540 145.383,71.200 146.000 C 71.860 146.617,72.400 147.369,72.400 147.672 C 72.400 147.975,72.760 148.483,73.200 148.800 C 73.640 149.117,74.000 149.697,74.000 150.088 C 74.000 150.533,74.300 150.800,74.800 150.800 C 75.240 150.800,75.600 150.991,75.600 151.224 C 75.600 151.457,75.432 151.543,75.226 151.416 C 75.020 151.289,74.398 151.638,73.844 152.192 C 73.290 152.747,72.378 153.200,71.818 153.200 C 71.258 153.200,70.800 153.380,70.800 153.600 C 70.800 153.820,70.440 154.000,70.000 154.000 C 69.560 154.000,69.200 154.180,69.200 154.400 C 69.200 154.620,68.750 154.800,68.200 154.800 C 67.650 154.800,67.200 154.980,67.200 155.200 C 67.200 155.420,66.649 155.600,65.976 155.600 C 65.263 155.600,64.856 155.767,65.000 156.000 C 65.144 156.233,64.745 156.400,64.047 156.400 C 63.387 156.400,62.736 156.580,62.600 156.800 C 62.464 157.020,61.995 157.200,61.558 157.200 C 59.957 157.200,58.800 158.954,58.800 161.382 C 58.800 162.602,58.980 163.600,59.200 163.600 C 59.420 163.600,59.600 163.960,59.600 164.400 C 59.600 164.840,59.780 165.200,60.000 165.200 C 60.220 165.200,60.400 165.560,60.400 166.000 C 60.400 166.440,60.580 166.800,60.800 166.800 C 61.020 166.800,61.200 167.160,61.200 167.600 C 61.200 168.325,61.627 168.594,62.530 168.437 C 62.711 168.406,62.749 168.559,62.614 168.777 C 62.312 169.266,67.840 174.800,68.631 174.800 C 68.944 174.800,69.200 174.980,69.200 175.200 C 69.200 175.420,69.434 175.600,69.720 175.600 C 70.456 175.600,72.393 176.541,72.397 176.900 C 72.399 177.065,72.940 177.200,73.600 177.200 C 74.260 177.200,74.800 177.380,74.800 177.600 C 74.800 177.820,75.124 178.000,75.520 178.000 C 75.916 178.000,76.482 178.225,76.779 178.500 C 77.210 178.900,77.261 178.900,77.035 178.500 C 76.862 178.193,76.994 178.000,77.376 178.000 C 77.719 178.000,78.000 178.180,78.000 178.400 C 78.000 178.620,78.360 178.800,78.800 178.800 C 79.333 178.800,79.600 179.067,79.600 179.600 C 79.600 180.040,79.420 180.400,79.200 180.400 C 78.980 180.400,78.800 181.041,78.800 181.824 C 78.800 182.607,78.658 183.160,78.485 183.052 C 78.312 182.945,78.130 183.340,78.081 183.929 C 78.033 184.518,77.815 185.060,77.597 185.133 C 77.378 185.207,77.200 185.442,77.200 185.657 C 77.200 185.872,77.425 185.920,77.700 185.765 C 78.100 185.539,78.100 185.590,77.700 186.021 C 77.425 186.318,77.200 187.143,77.200 187.856 C 77.200 188.569,77.020 189.264,76.800 189.400 C 76.580 189.536,76.400 190.187,76.400 190.847 C 76.400 191.507,76.249 191.954,76.065 191.840 C 75.881 191.726,75.690 192.747,75.641 194.108 C 75.592 195.469,75.384 196.686,75.180 196.812 C 74.976 196.938,74.791 198.922,74.768 201.221 C 74.743 203.729,74.542 205.631,74.263 205.977 C 73.905 206.423,73.913 206.486,74.300 206.253 C 74.611 206.066,74.800 206.179,74.800 206.553 C 74.800 206.883,74.620 207.264,74.400 207.400 C 74.160 207.548,74.000 210.212,74.000 214.047 C 74.000 217.567,74.147 220.356,74.326 220.245 C 74.506 220.135,74.695 220.860,74.747 221.858 C 74.808 223.044,74.695 223.582,74.420 223.413 C 74.189 223.270,74.000 223.333,74.000 223.553 C 74.000 223.773,74.180 224.064,74.400 224.200 C 74.620 224.336,74.800 225.506,74.800 226.800 C 74.800 228.094,74.980 229.264,75.200 229.400 C 75.420 229.536,75.600 230.627,75.600 231.824 C 75.600 233.021,75.780 234.000,76.000 234.000 C 76.220 234.000,76.400 234.810,76.400 235.800 C 76.400 236.790,76.580 237.600,76.800 237.600 C 77.020 237.600,77.200 238.230,77.200 239.000 C 77.200 239.770,77.380 240.400,77.600 240.400 C 77.820 240.400,78.000 240.942,78.000 241.605 C 78.000 242.268,78.180 243.168,78.400 243.605 C 78.620 244.042,78.980 244.758,79.200 245.195 C 79.420 245.632,79.600 246.341,79.600 246.771 C 79.600 247.201,79.780 247.664,80.000 247.800 C 80.220 247.936,80.400 248.667,80.400 249.424 C 80.400 250.181,80.580 250.800,80.800 250.800 C 81.020 250.800,81.200 251.160,81.200 251.600 C 81.200 252.040,81.380 252.400,81.600 252.400 C 81.820 252.400,82.000 252.760,82.000 253.200 C 82.000 253.640,82.180 254.000,82.400 254.000 C 82.620 254.000,82.800 254.416,82.800 254.925 C 82.800 255.433,83.160 256.236,83.600 256.708 C 84.040 257.180,84.400 257.844,84.400 258.183 C 84.400 258.522,84.580 258.800,84.800 258.800 C 85.020 258.800,85.200 259.160,85.200 259.600 C 85.200 260.040,85.380 260.400,85.600 260.400 C 85.820 260.400,86.000 260.760,86.000 261.200 C 86.000 261.640,86.135 262.001,86.300 262.003 C 86.659 262.007,87.600 263.944,87.600 264.680 C 87.600 264.966,87.780 265.200,88.000 265.200 C 88.220 265.200,88.400 265.443,88.400 265.741 C 88.400 266.038,88.940 266.846,89.600 267.537 C 90.260 268.228,90.800 269.205,90.800 269.708 C 90.800 270.211,91.160 270.883,91.600 271.200 C 92.040 271.517,92.400 271.985,92.400 272.240 C 92.400 272.495,93.120 273.445,94.000 274.352 C 94.880 275.259,95.600 276.153,95.600 276.339 C 95.600 276.525,96.680 277.813,98.000 279.200 C 99.320 280.587,100.400 281.888,100.400 282.090 C 100.400 282.599,101.449 283.600,101.984 283.600 C 102.227 283.600,102.544 283.911,102.690 284.291 C 103.037 285.195,105.449 287.600,106.009 287.600 C 106.248 287.600,107.504 288.680,108.800 290.000 C 110.096 291.320,111.363 292.400,111.617 292.400 C 111.871 292.400,112.583 292.940,113.200 293.600 C 113.817 294.260,114.537 294.800,114.800 294.800 C 115.063 294.800,115.783 295.340,116.400 296.000 C 117.017 296.660,117.769 297.200,118.072 297.200 C 118.375 297.200,118.883 297.560,119.200 298.000 C 119.517 298.440,120.057 298.800,120.400 298.800 C 120.743 298.800,121.283 299.160,121.600 299.600 C 121.917 300.040,122.457 300.400,122.800 300.400 C 123.143 300.400,123.683 300.760,124.000 301.200 C 124.317 301.640,124.897 302.000,125.288 302.000 C 125.680 302.000,126.000 302.180,126.000 302.400 C 126.000 302.620,126.320 302.800,126.712 302.800 C 127.103 302.800,127.683 303.160,128.000 303.600 C 128.317 304.040,128.897 304.400,129.288 304.400 C 129.680 304.400,130.000 304.580,130.000 304.800 C 130.000 305.020,130.360 305.200,130.800 305.200 C 131.240 305.200,131.600 305.380,131.600 305.600 C 131.600 305.820,131.960 306.000,132.400 306.000 C 132.840 306.000,133.200 306.180,133.200 306.400 C 133.200 306.620,133.560 306.800,134.000 306.800 C 134.440 306.800,134.800 306.980,134.800 307.200 C 134.800 307.420,135.160 307.600,135.600 307.600 C 136.040 307.600,136.400 307.780,136.400 308.000 C 136.400 308.220,136.760 308.400,137.200 308.400 C 137.640 308.400,138.000 308.580,138.000 308.800 C 138.000 309.020,138.540 309.200,139.200 309.200 C 139.860 309.200,140.400 309.380,140.400 309.600 C 140.400 309.820,140.760 310.000,141.200 310.000 C 141.640 310.000,142.000 310.180,142.000 310.400 C 142.000 310.620,142.360 310.800,142.800 310.800 C 143.240 310.800,143.600 310.980,143.600 311.200 C 143.600 311.420,144.140 311.600,144.800 311.600 C 145.460 311.600,146.000 311.780,146.000 312.000 C 146.000 312.220,146.360 312.400,146.800 312.400 C 147.240 312.400,147.600 312.580,147.600 312.800 C 147.600 313.020,148.140 313.200,148.800 313.200 C 149.460 313.200,150.000 313.380,150.000 313.600 C 150.000 313.820,150.540 314.000,151.200 314.000 C 151.860 314.000,152.400 314.180,152.400 314.400 C 152.400 314.620,152.760 314.800,153.200 314.800 C 153.640 314.800,154.000 314.980,154.000 315.200 C 154.000 315.420,154.720 315.600,155.600 315.600 C 156.480 315.600,157.200 315.780,157.200 316.000 C 157.200 316.220,157.560 316.400,158.000 316.400 C 158.440 316.400,158.800 316.580,158.800 316.800 C 158.800 317.020,159.520 317.200,160.400 317.200 C 161.280 317.200,162.000 317.380,162.000 317.600 C 162.000 317.820,162.720 318.000,163.600 318.000 C 164.480 318.000,165.200 318.180,165.200 318.400 C 165.200 318.620,166.100 318.800,167.200 318.800 C 168.300 318.800,169.200 318.980,169.200 319.200 C 169.200 319.422,170.267 319.600,171.600 319.600 C 172.933 319.600,174.000 319.778,174.000 320.000 C 174.000 320.228,175.192 320.400,176.776 320.400 C 178.303 320.400,179.664 320.580,179.800 320.800 C 179.956 321.053,184.671 321.200,192.624 321.200 C 200.741 321.200,205.200 321.058,205.200 320.800 C 205.200 320.578,206.267 320.400,207.600 320.400 C 208.933 320.400,210.000 320.222,210.000 320.000 C 210.000 319.778,211.067 319.600,212.400 319.600 C 213.733 319.600,214.800 319.422,214.800 319.200 C 214.800 318.980,215.700 318.800,216.800 318.800 C 217.900 318.800,218.800 318.620,218.800 318.400 C 218.800 318.180,219.520 318.000,220.400 318.000 C 221.280 318.000,222.000 317.820,222.000 317.600 C 222.000 317.380,222.529 317.200,223.176 317.200 C 223.823 317.200,224.464 317.020,224.600 316.800 C 224.736 316.580,225.467 316.400,226.224 316.400 C 226.981 316.400,227.600 316.220,227.600 316.000 C 227.600 315.780,228.140 315.600,228.800 315.600 C 229.460 315.600,230.000 315.420,230.000 315.200 C 230.000 314.980,230.439 314.800,230.976 314.800 C 231.513 314.800,232.064 314.620,232.200 314.400 C 232.336 314.180,232.797 314.000,233.224 314.000 C 233.651 314.000,234.000 313.820,234.000 313.600 C 234.000 313.380,234.540 313.200,235.200 313.200 C 235.860 313.200,236.400 313.020,236.400 312.800 C 236.400 312.580,236.940 312.400,237.600 312.400 C 238.260 312.400,238.800 312.220,238.800 312.000 C 238.800 311.780,239.160 311.600,239.600 311.600 C 240.040 311.600,240.400 311.420,240.400 311.200 C 240.400 310.980,240.760 310.800,241.200 310.800 C 241.640 310.800,242.000 310.620,242.000 310.400 C 242.000 310.180,242.360 310.000,242.800 310.000 C 243.240 310.000,243.600 309.820,243.600 309.600 C 243.600 309.380,244.140 309.200,244.800 309.200 C 245.460 309.200,246.000 309.020,246.000 308.800 C 246.000 308.580,246.360 308.400,246.800 308.400 C 247.240 308.400,247.600 308.220,247.600 308.000 C 247.600 307.780,247.960 307.600,248.400 307.600 C 248.840 307.600,249.200 307.420,249.200 307.200 C 249.200 306.980,249.560 306.800,250.000 306.800 C 250.440 306.800,250.800 306.620,250.800 306.400 C 250.800 306.180,251.120 306.000,251.512 306.000 C 251.903 306.000,252.483 305.640,252.800 305.200 C 253.117 304.760,253.697 304.400,254.088 304.400 C 254.480 304.400,254.800 304.220,254.800 304.000 C 254.800 303.780,255.120 303.600,255.512 303.600 C 255.903 303.600,256.483 303.240,256.800 302.800 C 257.117 302.360,257.607 302.000,257.888 302.000 C 258.169 302.000,259.141 301.280,260.048 300.400 C 260.955 299.520,261.905 298.800,262.160 298.800 C 262.415 298.800,262.883 298.440,263.200 298.000 C 263.517 297.560,264.025 297.200,264.328 297.200 C 264.631 297.200,265.383 296.660,266.000 296.000 C 266.617 295.340,267.333 294.800,267.592 294.800 C 267.851 294.800,268.754 294.080,269.600 293.200 C 270.446 292.320,271.329 291.600,271.563 291.600 C 272.174 291.600,275.600 287.987,275.600 287.342 C 275.600 287.044,275.960 286.800,276.400 286.800 C 276.856 286.800,277.200 286.533,277.200 286.181 C 277.200 285.840,278.419 284.355,279.909 282.881 C 281.398 281.406,283.058 279.570,283.596 278.800 C 284.134 278.030,285.255 276.739,286.087 275.931 C 286.919 275.124,287.600 274.295,287.600 274.091 C 287.600 273.886,288.140 273.154,288.800 272.463 C 289.460 271.772,290.000 270.975,290.000 270.692 C 290.000 270.409,290.360 269.917,290.800 269.600 C 291.240 269.283,291.600 268.703,291.600 268.312 C 291.600 267.920,291.738 267.600,291.906 267.600 C 292.074 267.600,292.506 266.925,292.866 266.100 C 293.226 265.275,293.988 264.060,294.560 263.400 C 295.131 262.740,295.599 261.975,295.600 261.700 C 295.600 261.425,295.780 261.200,296.000 261.200 C 296.220 261.200,296.400 260.880,296.400 260.488 C 296.400 260.097,296.760 259.517,297.200 259.200 C 297.640 258.883,298.000 258.303,298.000 257.912 C 298.000 257.520,298.180 257.200,298.400 257.200 C 298.620 257.200,298.800 256.840,298.800 256.400 C 298.800 255.960,298.980 255.600,299.200 255.600 C 299.420 255.600,299.600 255.240,299.600 254.800 C 299.600 254.360,299.780 254.000,300.000 254.000 C 300.220 254.000,300.400 253.719,300.400 253.376 C 300.400 253.033,300.542 252.840,300.715 252.948 C 300.888 253.055,301.067 252.699,301.112 252.158 C 301.157 251.617,301.555 250.786,301.997 250.311 C 302.438 249.837,302.800 249.134,302.800 248.748 C 302.800 248.363,302.980 247.936,303.200 247.800 C 303.420 247.664,303.600 247.103,303.600 246.553 C 303.600 246.003,303.742 245.640,303.915 245.748 C 304.088 245.855,304.270 245.460,304.319 244.871 C 304.367 244.282,304.585 243.740,304.803 243.667 C 305.022 243.593,305.200 243.188,305.200 242.767 C 305.200 242.345,305.380 242.000,305.600 242.000 C 305.820 242.000,306.000 241.460,306.000 240.800 C 306.000 240.140,306.180 239.600,306.400 239.600 C 306.620 239.600,306.800 239.161,306.800 238.624 C 306.800 238.087,306.980 237.536,307.200 237.400 C 307.420 237.264,307.600 236.623,307.600 235.976 C 307.600 235.329,307.780 234.800,308.000 234.800 C 308.220 234.800,308.400 234.069,308.400 233.176 C 308.400 232.196,308.558 231.651,308.800 231.800 C 309.049 231.954,309.200 231.196,309.200 229.800 C 309.200 228.404,309.351 227.646,309.600 227.800 C 309.838 227.947,310.000 227.471,310.000 226.624 C 310.000 225.841,310.180 225.200,310.400 225.200 C 310.620 225.200,310.800 224.210,310.800 223.000 C 310.800 221.790,310.980 220.800,311.200 220.800 C 311.420 220.800,311.600 220.170,311.600 219.400 C 311.600 218.630,311.780 218.000,312.000 218.000 C 312.220 218.000,312.400 217.809,312.400 217.576 C 312.400 217.343,312.220 217.264,312.000 217.400 C 311.780 217.536,311.600 217.266,311.600 216.800 C 311.600 216.334,311.780 216.064,312.000 216.200 C 312.255 216.357,312.400 215.205,312.400 213.027 C 312.400 209.362,313.203 207.600,314.872 207.600 C 315.272 207.600,315.600 207.420,315.600 207.200 C 315.600 206.980,315.945 206.800,316.367 206.800 C 316.788 206.800,317.193 206.665,317.267 206.500 C 317.340 206.335,318.255 205.767,319.300 205.237 C 320.345 204.708,321.200 204.123,321.200 203.937 C 321.200 203.752,321.494 203.600,321.853 203.600 C 322.212 203.600,322.797 203.284,323.153 202.897 C 323.509 202.511,324.295 201.940,324.900 201.630 C 325.505 201.319,326.000 200.814,326.000 200.506 C 326.000 200.199,326.900 199.071,328.000 198.000 C 329.100 196.929,330.000 195.860,330.000 195.626 C 330.000 195.392,330.720 194.459,331.600 193.552 C 332.480 192.645,333.200 191.655,333.200 191.352 C 333.200 191.048,333.380 190.800,333.600 190.800 C 333.820 190.800,334.000 190.440,334.000 190.000 C 334.000 189.560,334.180 189.200,334.400 189.200 C 334.620 189.200,334.800 188.851,334.800 188.424 C 334.800 187.997,334.980 187.536,335.200 187.400 C 335.420 187.264,335.600 186.713,335.600 186.176 C 335.600 185.639,335.780 185.200,336.000 185.200 C 336.220 185.200,336.400 184.570,336.400 183.800 C 336.400 183.030,336.580 182.400,336.800 182.400 C 337.020 182.400,337.200 181.680,337.200 180.800 C 337.200 179.920,337.380 179.200,337.600 179.200 C 337.822 179.200,338.000 178.141,338.000 176.824 C 338.000 175.517,338.180 174.336,338.400 174.200 C 338.620 174.064,338.797 173.738,338.794 173.476 C 338.790 173.190,338.633 173.239,338.400 173.600 C 338.147 173.992,338.010 167.083,338.006 153.700 C 338.002 140.304,337.861 133.200,337.600 133.200 C 337.380 133.200,337.200 132.919,337.200 132.576 C 337.200 132.233,337.380 132.064,337.600 132.200 C 337.820 132.336,338.000 132.257,338.000 132.024 C 338.000 131.791,337.820 131.600,337.600 131.600 C 337.380 131.600,337.200 131.161,337.200 130.624 C 337.200 130.087,337.020 129.536,336.800 129.400 C 336.580 129.264,336.400 128.623,336.400 127.976 C 336.400 127.329,336.220 126.800,336.000 126.800 C 335.780 126.800,335.600 126.440,335.600 126.000 C 335.600 125.560,335.420 125.200,335.200 125.200 C 334.980 125.200,334.800 124.784,334.800 124.275 C 334.800 123.767,334.485 123.002,334.100 122.575 C 333.715 122.149,333.145 121.305,332.832 120.700 C 332.520 120.095,332.115 119.600,331.932 119.600 C 331.750 119.600,331.600 119.280,331.600 118.888 C 331.600 118.497,331.240 117.917,330.800 117.600 C 330.360 117.283,330.000 116.779,330.000 116.480 C 330.000 116.182,329.280 115.246,328.400 114.400 C 327.520 113.554,326.800 112.579,326.800 112.231 C 326.800 111.867,326.462 111.600,326.000 111.600 C 325.467 111.600,325.200 111.333,325.200 110.800 C 325.200 110.300,324.933 110.000,324.488 110.000 C 324.097 110.000,323.517 109.640,323.200 109.200 C 322.883 108.760,322.343 108.400,322.000 108.400 C 321.657 108.400,321.117 108.040,320.800 107.600 C 320.483 107.160,319.903 106.800,319.512 106.800 C 319.120 106.800,318.800 106.620,318.800 106.400 C 318.800 106.180,318.440 106.000,318.000 106.000 C 317.560 106.000,317.200 105.820,317.200 105.600 C 317.200 105.380,316.880 105.200,316.488 105.200 C 316.097 105.200,315.517 104.840,315.200 104.400 C 314.861 103.930,314.165 103.600,313.512 103.600 C 312.900 103.600,312.400 103.420,312.400 103.200 C 312.400 102.980,312.040 102.800,311.600 102.800 C 311.160 102.800,310.800 102.620,310.800 102.400 C 310.800 102.180,310.260 102.000,309.600 102.000 C 308.940 102.000,308.400 101.863,308.400 101.696 C 308.400 101.529,308.021 101.156,307.558 100.867 C 307.095 100.578,306.836 100.534,306.982 100.770 C 307.138 101.023,306.909 101.200,306.424 101.200 C 305.971 101.200,305.600 101.020,305.600 100.800 C 305.600 100.580,305.186 100.400,304.680 100.400 C 304.174 100.400,303.518 100.175,303.221 99.900 C 302.790 99.500,302.739 99.500,302.965 99.900 C 303.164 100.253,302.882 100.400,302.000 100.400 C 301.270 100.400,300.855 100.234,301.000 100.000 C 301.164 99.735,292.479 99.600,275.247 99.600 C 258.345 99.600,249.161 99.740,249.000 100.000 C 248.864 100.220,247.773 100.400,246.576 100.400 C 245.379 100.400,244.400 100.220,244.400 100.000 C 244.400 99.780,244.080 99.600,243.688 99.600 C 243.297 99.600,242.717 99.240,242.400 98.800 C 242.083 98.360,241.543 98.000,241.200 98.000 C 240.857 98.000,240.317 97.640,240.000 97.200 C 239.661 96.730,238.965 96.400,238.312 96.400 C 237.700 96.400,237.200 96.220,237.200 96.000 C 237.200 95.780,236.851 95.600,236.424 95.600 C 235.997 95.600,235.536 95.420,235.400 95.200 C 235.264 94.980,234.713 94.800,234.176 94.800 C 233.639 94.800,233.200 94.620,233.200 94.400 C 233.200 94.180,232.851 94.000,232.424 94.000 C 231.997 94.000,231.536 93.820,231.400 93.600 C 231.264 93.380,230.713 93.200,230.176 93.200 C 229.639 93.200,229.200 93.020,229.200 92.800 C 229.200 92.580,228.742 92.400,228.183 92.400 C 227.624 92.400,226.772 92.032,226.289 91.583 C 225.806 91.133,225.349 90.953,225.272 91.183 C 225.095 91.716,224.000 91.731,224.000 91.200 C 224.000 90.980,223.280 90.800,222.400 90.800 C 221.520 90.800,220.800 90.620,220.800 90.400 C 220.800 90.180,220.080 90.000,219.200 90.000 C 218.320 90.000,217.600 89.820,217.600 89.600 C 217.600 89.380,216.700 89.200,215.600 89.200 C 214.500 89.200,213.600 89.020,213.600 88.800 C 213.600 88.580,212.610 88.400,211.400 88.400 C 210.190 88.400,209.200 88.220,209.200 88.000 C 209.200 87.780,208.480 87.600,207.600 87.600 C 206.720 87.600,206.000 87.420,206.000 87.200 C 206.000 86.980,205.809 86.800,205.576 86.800 C 205.343 86.800,205.264 86.980,205.400 87.200 C 205.552 87.447,204.871 87.600,203.624 87.600 C 202.511 87.600,201.600 87.420,201.600 87.200 C 201.600 86.945,198.400 86.800,192.800 86.800 C 187.200 86.800,184.000 86.945,184.000 87.200 M199.800 95.828 C 208.802 96.332,221.846 99.535,230.600 103.391 C 231.260 103.682,232.385 104.161,233.100 104.457 C 235.020 105.252,234.738 105.745,231.148 107.873 C 227.842 109.832,225.444 112.162,222.277 116.492 C 220.177 119.363,219.794 119.505,218.498 117.898 C 217.291 116.400,209.790 108.895,208.600 107.994 C 206.165 106.150,201.136 102.767,199.400 101.806 C 195.381 99.580,191.767 97.733,190.400 97.206 C 186.994 95.892,188.110 95.131,193.000 95.433 C 194.320 95.514,197.380 95.692,199.800 95.828 M168.155 100.437 C 184.690 102.420,200.871 110.646,209.713 121.566 C 211.065 123.235,212.456 124.870,212.804 125.200 C 219.158 131.215,224.348 152.057,221.868 161.600 L 221.400 163.400 217.600 163.445 C 194.619 163.715,177.834 190.799,187.611 211.835 C 189.660 216.242,190.751 224.000,189.323 224.000 C 188.490 224.000,185.584 222.438,184.009 221.143 C 181.438 219.030,179.036 219.798,179.274 222.656 C 179.412 224.313,180.874 225.718,188.600 231.616 C 190.580 233.128,192.677 234.777,193.260 235.282 C 195.059 236.841,200.320 240.538,202.533 241.800 C 204.932 243.167,208.230 245.425,209.375 246.483 C 209.802 246.878,210.305 247.200,210.492 247.200 C 210.680 247.200,211.051 247.384,211.317 247.608 C 211.905 248.105,216.505 251.038,218.300 252.060 C 219.015 252.467,220.275 253.189,221.100 253.665 C 221.925 254.141,223.091 254.783,223.692 255.091 C 224.293 255.399,224.889 255.820,225.016 256.026 C 225.144 256.233,226.093 256.777,227.124 257.235 C 228.156 257.693,230.620 258.848,232.600 259.801 C 244.735 265.641,249.064 267.449,257.600 270.241 C 260.570 271.213,263.540 272.162,264.200 272.350 C 267.156 273.192,271.272 274.251,272.900 274.588 C 274.932 275.008,274.254 276.038,267.033 283.500 C 262.764 287.912,263.012 287.856,256.200 285.931 C 249.358 283.998,244.005 281.867,241.122 279.931 C 237.122 277.243,234.000 278.192,234.000 282.093 C 234.000 284.757,242.213 289.885,249.200 291.585 C 250.410 291.879,252.192 292.458,253.159 292.871 L 254.918 293.622 253.959 294.644 C 252.405 296.301,247.339 299.257,245.673 299.481 C 243.754 299.738,234.402 297.332,230.600 295.603 C 230.160 295.402,227.730 294.319,225.200 293.194 C 219.154 290.508,217.602 289.695,215.094 287.905 C 210.194 284.406,208.732 284.249,207.392 287.074 C 206.577 288.791,206.894 290.369,208.319 291.688 C 212.563 295.616,227.877 303.662,234.600 305.497 C 237.711 306.346,236.640 307.408,231.467 308.602 C 229.964 308.949,228.074 309.483,227.267 309.790 C 225.497 310.461,219.144 312.000,218.140 312.000 C 216.062 312.000,203.326 307.381,199.952 305.403 C 198.635 304.632,197.499 304.000,197.427 304.000 C 196.710 304.000,188.282 298.073,186.175 296.086 C 182.164 292.304,176.883 296.022,180.016 300.422 C 181.119 301.972,187.357 306.612,192.110 309.419 C 196.861 312.224,197.426 312.785,195.549 312.837 C 189.512 313.003,180.847 311.473,175.000 309.209 C 174.560 309.039,172.652 308.337,170.760 307.650 C 164.641 305.427,157.634 301.176,149.248 294.600 C 147.564 293.280,145.380 291.581,144.394 290.825 C 139.813 287.312,125.600 269.875,125.600 267.768 C 125.600 267.663,124.691 265.558,123.581 263.089 C 121.090 257.553,120.976 257.285,120.479 255.800 C 120.100 254.671,119.864 253.719,118.825 249.123 C 116.957 240.868,118.848 230.889,123.648 223.672 C 129.024 215.589,124.809 210.104,118.714 217.250 C 108.301 229.457,106.483 244.042,113.185 261.600 C 113.647 262.810,114.229 264.340,114.479 265.000 C 116.803 271.149,128.213 288.191,132.287 291.600 C 132.945 292.150,135.558 294.549,138.095 296.932 C 140.631 299.315,143.673 301.979,144.853 302.854 C 146.034 303.729,147.274 304.667,147.609 304.940 C 149.049 306.113,151.928 307.954,153.524 308.721 C 155.481 309.663,159.280 312.454,158.993 312.740 C 158.722 313.011,153.799 311.493,145.600 308.610 C 140.548 306.833,130.319 300.822,126.753 297.534 C 125.958 296.800,123.621 294.670,121.559 292.800 C 116.479 288.191,110.046 281.129,108.790 278.781 C 108.548 278.330,106.928 276.071,105.189 273.761 C 103.450 271.451,100.738 267.364,99.164 264.680 C 97.589 261.996,95.909 259.170,95.431 258.400 C 94.146 256.330,92.137 251.949,91.460 249.738 C 91.133 248.672,90.304 246.270,89.618 244.400 C 87.864 239.620,86.537 234.379,85.113 226.600 C 84.428 222.858,84.423 202.836,85.106 199.100 C 85.378 197.615,85.803 195.185,86.051 193.700 C 86.299 192.215,87.489 187.130,88.696 182.400 C 90.906 173.742,91.169 172.657,91.943 169.000 C 92.825 164.835,94.710 158.317,97.266 150.600 C 102.918 133.531,117.579 114.170,128.800 108.957 C 140.792 103.385,143.597 102.364,150.000 101.237 C 157.406 99.934,162.200 99.723,168.155 100.437 M92.699 106.529 C 93.745 107.261,95.320 108.069,96.200 108.326 C 97.080 108.583,99.060 109.194,100.600 109.684 C 102.993 110.444,104.316 110.576,109.700 110.587 C 113.165 110.594,115.991 110.690,115.981 110.800 C 115.970 110.910,114.955 111.720,113.725 112.600 C 111.099 114.479,109.169 116.456,106.597 119.901 C 104.542 122.654,103.763 123.026,100.895 122.623 C 93.924 121.644,90.400 116.794,90.400 108.180 C 90.400 104.720,90.258 104.822,92.699 106.529 M299.210 109.215 C 303.344 109.720,307.553 110.980,310.118 112.479 C 311.172 113.096,312.139 113.600,312.267 113.600 C 312.803 113.600,317.550 117.250,319.355 119.050 C 322.857 122.542,324.895 125.625,326.199 129.400 C 327.937 134.434,327.971 134.957,327.986 156.861 L 328.000 177.922 326.737 181.661 C 324.302 188.869,321.085 192.622,314.363 196.091 C 309.310 198.700,310.927 198.542,286.842 198.781 L 264.685 199.000 260.442 203.428 C 254.426 209.707,244.988 216.058,237.082 219.150 C 230.501 221.722,230.357 221.628,233.307 216.680 C 235.023 213.803,236.217 211.248,238.486 205.600 C 243.406 193.354,240.626 179.337,231.324 169.485 C 229.313 167.354,229.376 168.014,230.548 161.400 C 231.776 154.468,231.255 145.890,229.200 139.200 C 229.031 138.650,228.671 137.390,228.399 136.400 C 228.127 135.410,227.376 133.229,226.729 131.554 L 225.553 128.507 226.420 126.954 C 231.846 117.227,241.307 110.784,252.200 109.398 C 257.261 108.755,294.269 108.610,299.210 109.215 M78.000 130.689 C 80.773 131.511,93.749 131.608,97.332 130.834 C 100.589 130.130,100.664 130.563,97.847 133.799 C 97.273 134.459,96.578 135.449,96.301 135.999 C 93.740 141.102,92.144 143.643,91.416 143.774 C 90.967 143.855,89.186 144.134,87.457 144.394 L 84.315 144.866 82.057 143.480 C 78.636 141.380,76.037 137.662,74.629 132.854 C 73.760 129.890,73.799 129.448,74.900 129.772 C 75.395 129.917,76.790 130.330,78.000 130.689 M151.926 136.683 L 150.451 137.289 152.326 139.148 C 153.356 140.170,154.949 141.341,155.865 141.749 C 157.231 142.357,157.681 142.852,158.365 144.499 C 161.508 152.061,153.967 158.546,146.877 154.378 C 144.504 152.983,144.216 153.234,143.783 157.073 C 143.091 163.213,146.061 169.468,151.295 172.893 C 154.404 174.927,156.349 175.321,162.352 175.134 L 167.535 174.973 167.800 176.737 C 168.302 180.084,168.915 180.264,172.161 178.022 C 188.486 166.743,183.994 141.704,164.726 136.575 C 161.833 135.805,153.900 135.872,151.926 136.683 M251.000 146.141 C 247.111 147.209,244.165 152.103,245.195 155.783 C 247.046 162.392,254.590 164.421,259.015 159.499 C 263.170 154.877,261.034 147.719,255.000 146.048 C 253.183 145.544,253.170 145.545,251.000 146.141 M276.725 146.143 C 271.640 147.726,269.467 154.541,272.734 158.664 C 275.520 162.181,277.747 163.017,281.283 161.871 C 289.418 159.235,289.300 148.643,281.108 146.210 C 278.779 145.518,278.735 145.517,276.725 146.143 M302.815 146.070 C 297.637 147.555,295.162 153.660,297.952 158.061 C 301.058 162.958,306.319 163.731,310.334 159.880 C 316.277 154.179,310.640 143.825,302.815 146.070 M89.782 151.300 C 89.626 152.015,88.987 153.770,88.360 155.200 C 87.733 156.630,86.749 159.600,86.173 161.800 C 84.265 169.090,84.129 169.214,78.913 168.438 C 75.599 167.945,74.713 167.439,70.900 163.857 C 68.530 161.630,68.238 160.549,69.900 160.152 C 70.505 160.008,71.180 159.763,71.400 159.608 C 71.620 159.453,73.060 158.835,74.600 158.236 C 76.140 157.636,78.071 156.708,78.891 156.173 C 79.712 155.638,80.484 155.200,80.607 155.200 C 80.730 155.200,82.399 154.148,84.315 152.862 C 89.354 149.483,90.230 149.232,89.782 151.300 M219.000 172.428 C 231.727 175.797,235.858 194.605,227.087 209.249 C 225.082 212.597,225.196 212.596,224.133 209.270 C 220.717 198.574,207.790 188.800,197.061 188.800 C 195.228 188.800,195.111 188.544,196.074 186.650 C 200.645 177.664,212.051 170.589,219.000 172.428 M197.354 195.644 C 205.353 197.802,216.000 207.286,216.000 212.254 C 216.000 213.943,205.485 213.270,200.299 211.248 C 194.814 209.110,194.503 208.759,193.397 203.459 C 191.860 196.089,192.718 194.394,197.354 195.644 M302.977 209.163 C 303.406 209.857,301.477 222.446,300.397 226.000 C 300.230 226.550,299.865 227.810,299.587 228.800 C 299.309 229.790,298.388 232.606,297.541 235.058 C 296.232 238.851,295.364 240.932,292.394 247.400 C 292.192 247.840,291.581 249.190,291.036 250.400 C 288.593 255.824,281.245 266.800,280.057 266.800 C 279.404 266.800,274.333 265.561,269.400 264.195 C 268.080 263.830,266.370 263.356,265.600 263.143 C 264.830 262.929,263.660 262.608,263.000 262.430 C 262.340 262.251,260.720 261.703,259.400 261.212 C 258.080 260.721,255.110 259.681,252.800 258.899 C 250.490 258.118,247.837 257.146,246.904 256.739 C 245.972 256.333,245.096 256.000,244.957 256.000 C 244.508 256.000,228.665 248.142,226.400 246.796 C 223.319 244.964,221.851 244.120,218.321 242.149 C 207.707 236.222,201.731 230.234,198.657 222.450 C 197.739 220.125,197.806 220.103,202.306 221.227 C 205.692 222.073,207.101 222.199,213.100 222.189 C 220.896 222.176,220.783 222.118,218.745 225.079 C 214.631 231.059,218.818 233.606,229.089 231.373 C 230.580 231.049,232.340 230.676,233.000 230.543 C 236.460 229.847,242.205 227.648,249.200 224.339 C 254.282 221.935,258.633 218.710,265.959 211.915 L 269.318 208.800 286.035 208.800 C 295.600 208.800,302.849 208.955,302.977 209.163 " stroke="none" fill="#0c354c" fill-rule="evenodd"></path><path id="path1" d="M189.666 95.950 C 188.985 96.382,189.941 96.800,191.609 96.800 C 193.211 96.800,193.441 96.148,191.944 95.849 C 190.383 95.537,190.314 95.540,189.666 95.950 M194.200 96.400 C 194.336 96.620,195.233 96.800,196.193 96.800 C 197.153 96.800,198.808 96.967,199.869 97.172 C 200.931 97.377,202.970 97.742,204.400 97.985 C 211.880 99.253,224.206 102.583,225.380 103.653 C 225.589 103.844,225.989 104.000,226.270 104.000 C 226.550 104.000,227.999 104.572,229.490 105.271 C 232.315 106.596,233.040 106.685,233.938 105.816 C 234.560 105.214,232.312 104.016,226.400 101.799 C 224.696 101.160,222.488 100.437,219.800 99.636 C 216.810 98.746,210.822 97.441,205.033 96.418 C 201.948 95.873,193.866 95.859,194.200 96.400 M155.600 100.626 C 148.677 101.372,142.244 102.885,139.505 104.413 C 139.123 104.626,138.639 104.800,138.429 104.800 C 138.219 104.800,136.192 105.670,133.924 106.733 C 131.656 107.797,129.106 108.984,128.259 109.372 C 127.411 109.759,126.061 110.650,125.259 111.351 C 124.456 112.052,122.749 113.419,121.464 114.389 C 115.160 119.149,109.242 126.505,104.565 135.391 C 101.863 140.526,101.414 141.855,102.803 140.598 C 103.244 140.198,104.004 139.672,104.491 139.430 C 104.978 139.187,105.790 138.361,106.296 137.594 C 107.553 135.690,109.999 132.770,111.149 131.800 C 111.670 131.360,112.573 130.550,113.154 130.000 C 118.928 124.533,130.719 117.318,138.250 114.642 C 161.137 106.510,181.097 109.922,201.295 125.419 C 208.253 130.757,218.110 147.885,218.088 154.600 C 218.081 156.799,219.190 157.978,221.282 157.995 C 222.358 158.003,222.571 155.628,222.013 149.829 C 221.074 140.077,217.458 130.696,212.332 124.719 C 211.333 123.553,209.714 121.610,208.734 120.400 C 200.869 110.686,182.102 101.609,167.800 100.602 C 166.040 100.478,163.700 100.312,162.600 100.232 C 161.500 100.153,158.350 100.330,155.600 100.626 M90.400 106.778 C 90.400 113.298,106.063 117.381,113.251 112.736 C 116.187 110.838,115.945 110.398,112.200 110.821 C 109.423 111.134,104.308 110.733,101.600 109.991 C 96.813 108.678,94.375 107.734,92.699 106.547 C 90.341 104.876,90.400 104.871,90.400 106.778 M251.800 109.457 C 248.865 109.723,244.240 111.221,241.266 112.870 C 236.956 115.259,235.786 116.134,232.588 119.360 C 226.399 125.604,225.280 128.205,227.109 132.096 C 227.599 133.138,228.005 134.218,228.010 134.496 C 228.047 136.302,230.400 141.666,230.400 139.944 C 230.400 137.532,233.490 130.826,235.973 127.849 C 238.441 124.891,244.868 121.090,249.760 119.695 C 253.565 118.611,298.434 118.643,302.600 119.733 C 312.041 122.203,319.319 128.846,322.402 137.807 C 323.338 140.525,324.445 141.992,326.210 142.853 C 327.881 143.668,328.000 143.442,328.000 139.467 C 328.000 126.335,318.368 114.399,304.318 110.119 C 302.325 109.512,257.440 108.946,251.800 109.457 M74.212 129.981 C 73.095 131.788,77.340 135.034,82.426 136.261 C 86.528 137.252,95.980 135.300,98.294 132.986 C 100.306 130.974,100.066 130.719,96.500 131.083 C 88.180 131.933,79.051 131.390,75.140 129.812 C 74.778 129.665,74.360 129.742,74.212 129.981 M149.600 140.762 C 146.196 141.479,144.402 143.188,142.037 147.968 C 141.212 149.636,140.288 151.397,139.984 151.882 C 139.334 152.917,139.719 153.531,140.573 152.823 C 141.547 152.014,142.113 152.742,141.877 154.500 C 141.495 157.348,139.860 157.525,139.395 154.769 C 139.241 153.857,138.905 153.200,138.594 153.200 C 137.892 153.200,137.687 152.135,138.058 150.411 C 138.512 148.294,138.212 148.539,137.224 151.092 C 130.955 167.293,147.040 185.591,163.753 181.270 C 167.173 180.386,169.017 179.314,166.240 179.825 C 161.864 180.630,152.641 180.079,153.041 179.037 C 153.301 178.360,152.217 177.930,151.013 178.232 C 150.002 178.486,148.800 177.225,148.800 175.911 C 148.800 175.520,148.620 175.200,148.400 175.200 C 148.180 175.200,148.000 174.918,148.000 174.573 C 148.000 174.123,148.231 174.020,148.819 174.206 C 150.870 174.857,150.711 173.644,148.437 171.303 C 144.373 167.119,142.435 161.267,143.346 155.933 C 143.899 152.692,144.073 152.489,145.488 153.439 C 148.022 155.142,148.659 155.350,151.400 155.370 C 157.950 155.417,161.104 149.428,157.715 143.377 C 156.707 141.576,152.371 140.179,149.600 140.762 M87.418 151.052 C 86.331 151.631,83.902 153.129,82.021 154.381 C 80.139 155.634,77.925 156.960,77.100 157.329 C 74.195 158.628,72.981 159.131,71.087 159.822 C 68.814 160.650,68.483 161.055,69.363 161.934 C 70.784 163.355,78.918 161.717,81.552 159.479 C 81.908 159.177,83.375 158.284,84.810 157.495 C 87.767 155.871,88.446 155.188,89.082 153.200 C 90.286 149.437,90.334 149.499,87.418 151.052 M142.000 162.376 C 142.000 162.848,141.220 163.353,140.933 163.067 C 140.647 162.780,141.152 162.000,141.624 162.000 C 141.831 162.000,142.000 162.169,142.000 162.376 M141.190 163.788 C 141.459 164.112,141.697 165.012,141.719 165.788 C 141.741 166.565,141.933 167.200,142.146 167.200 C 142.860 167.200,141.994 167.749,141.186 167.808 C 140.097 167.889,139.609 167.189,139.772 165.780 C 139.847 165.131,139.929 164.285,139.954 163.900 C 140.010 163.046,140.535 162.998,141.190 163.788 M144.177 169.447 C 144.675 169.638,144.717 169.818,144.361 170.247 C 143.776 170.952,142.800 170.964,142.800 170.267 C 142.800 169.327,143.218 169.078,144.177 169.447 M147.357 172.633 C 147.733 173.611,147.651 173.741,147.000 173.200 C 146.335 172.648,146.204 172.000,146.757 172.000 C 146.954 172.000,147.224 172.285,147.357 172.633 M213.200 172.662 C 207.419 173.835,198.578 181.248,196.216 186.901 L 195.635 188.290 197.918 188.529 C 210.372 189.832,223.048 200.002,224.642 209.970 C 224.979 212.079,225.114 212.037,226.900 209.264 C 237.662 192.559,229.013 169.451,213.200 172.662 M193.680 195.680 C 192.769 196.591,193.281 202.997,194.447 205.295 C 194.641 205.677,194.806 206.307,194.813 206.695 C 194.835 207.943,195.784 208.718,198.623 209.807 C 200.150 210.394,201.760 211.013,202.200 211.183 C 205.358 212.406,216.388 213.028,215.280 211.920 C 215.016 211.656,214.800 211.116,214.800 210.720 C 214.800 210.324,214.664 210.000,214.498 210.000 C 214.331 210.000,213.964 209.477,213.680 208.837 C 212.007 205.056,207.091 200.055,203.128 198.102 C 200.681 196.897,199.645 196.529,196.154 195.626 C 194.130 195.103,194.260 195.100,193.680 195.680 M204.000 208.800 C 204.000 209.240,203.831 209.600,203.624 209.600 C 203.087 209.600,202.708 208.872,203.000 208.400 C 203.418 207.724,204.000 207.956,204.000 208.800 M139.200 208.635 C 133.608 209.661,130.514 213.015,132.568 215.824 C 133.093 216.542,133.671 216.600,140.268 216.603 C 151.691 216.607,160.755 219.805,174.128 228.549 C 175.928 229.725,179.073 231.748,181.117 233.044 C 183.162 234.340,186.762 236.663,189.117 238.208 C 191.473 239.752,194.515 241.595,195.878 242.305 C 197.241 243.014,200.751 245.066,203.678 246.865 C 206.605 248.664,209.810 250.589,210.800 251.144 C 211.790 251.699,213.320 252.566,214.200 253.072 C 216.376 254.324,222.272 257.192,226.400 259.008 C 228.270 259.830,230.585 260.854,231.545 261.282 C 234.926 262.791,242.846 265.651,243.261 265.513 C 243.635 265.388,232.299 259.582,228.200 257.799 C 227.320 257.416,225.669 256.495,224.532 255.752 C 223.395 255.008,222.356 254.400,222.224 254.400 C 222.091 254.400,221.312 253.972,220.491 253.450 C 219.671 252.927,217.020 251.283,214.600 249.796 C 212.180 248.309,209.300 246.413,208.200 245.582 C 207.100 244.752,204.692 243.151,202.850 242.024 C 199.160 239.767,195.898 237.450,191.256 233.791 C 185.883 229.556,180.671 225.716,178.150 224.136 C 176.803 223.291,174.463 221.599,172.950 220.376 C 166.800 215.403,158.689 210.953,153.231 209.557 C 150.343 208.818,141.405 208.231,139.200 208.635 " stroke="none" fill="#dff3dd" fill-rule="evenodd"></path><path id="path2" d="M180.400 87.200 C 180.400 87.420,181.210 87.600,182.200 87.600 C 183.190 87.600,184.000 87.420,184.000 87.200 C 184.000 86.980,183.190 86.800,182.200 86.800 C 181.210 86.800,180.400 86.980,180.400 87.200 M201.600 87.200 C 201.600 87.420,202.511 87.600,203.624 87.600 C 204.871 87.600,205.552 87.447,205.400 87.200 C 205.264 86.980,204.353 86.800,203.376 86.800 C 202.399 86.800,201.600 86.980,201.600 87.200 M175.400 88.000 C 175.259 88.228,175.604 88.400,176.200 88.400 C 176.796 88.400,177.141 88.228,177.000 88.000 C 176.864 87.780,176.504 87.600,176.200 87.600 C 175.896 87.600,175.536 87.780,175.400 88.000 M209.200 88.000 C 209.200 88.220,209.661 88.400,210.224 88.400 C 210.804 88.400,211.140 88.227,211.000 88.000 C 210.864 87.780,210.403 87.600,209.976 87.600 C 209.549 87.600,209.200 87.780,209.200 88.000 M171.000 88.800 C 170.860 89.026,171.188 89.200,171.753 89.200 C 172.303 89.200,172.864 89.020,173.000 88.800 C 173.140 88.574,172.812 88.400,172.247 88.400 C 171.697 88.400,171.136 88.580,171.000 88.800 M213.600 88.800 C 213.600 89.020,214.050 89.200,214.600 89.200 C 215.150 89.200,215.600 89.020,215.600 88.800 C 215.600 88.580,215.150 88.400,214.600 88.400 C 214.050 88.400,213.600 88.580,213.600 88.800 M217.600 89.600 C 217.600 89.820,217.870 90.000,218.200 90.000 C 218.530 90.000,218.800 89.820,218.800 89.600 C 218.800 89.380,218.530 89.200,218.200 89.200 C 217.870 89.200,217.600 89.380,217.600 89.600 M158.964 90.459 C 158.848 90.646,159.843 90.800,161.176 90.800 C 162.509 90.800,163.600 90.639,163.600 90.441 C 163.600 89.985,159.247 90.001,158.964 90.459 M164.600 90.400 C 164.460 90.627,164.796 90.800,165.376 90.800 C 165.939 90.800,166.400 90.620,166.400 90.400 C 166.400 90.180,166.051 90.000,165.624 90.000 C 165.197 90.000,164.736 90.180,164.600 90.400 M220.800 90.400 C 220.800 90.620,221.070 90.800,221.400 90.800 C 221.730 90.800,222.000 90.620,222.000 90.400 C 222.000 90.180,221.730 90.000,221.400 90.000 C 221.070 90.000,220.800 90.180,220.800 90.400 M149.800 91.200 C 149.655 91.434,150.070 91.600,150.800 91.600 C 151.530 91.600,151.945 91.434,151.800 91.200 C 151.664 90.980,151.214 90.800,150.800 90.800 C 150.386 90.800,149.936 90.980,149.800 91.200 M224.000 91.200 C 224.000 91.420,224.270 91.600,224.600 91.600 C 224.930 91.600,225.200 91.420,225.200 91.200 C 225.200 90.980,224.930 90.800,224.600 90.800 C 224.270 90.800,224.000 90.980,224.000 91.200 M145.200 92.000 C 145.200 92.220,145.470 92.400,145.800 92.400 C 146.130 92.400,146.400 92.220,146.400 92.000 C 146.400 91.780,146.130 91.600,145.800 91.600 C 145.470 91.600,145.200 91.780,145.200 92.000 M142.000 92.800 C 142.000 93.020,142.270 93.200,142.600 93.200 C 142.930 93.200,143.200 93.020,143.200 92.800 C 143.200 92.580,142.930 92.400,142.600 92.400 C 142.270 92.400,142.000 92.580,142.000 92.800 M191.720 95.770 C 193.382 96.270,193.303 96.800,191.566 96.800 C 189.936 96.800,188.992 96.378,189.666 95.950 C 190.029 95.720,189.833 95.610,189.051 95.606 C 188.075 95.601,187.977 95.690,188.400 96.200 C 188.674 96.530,189.055 96.800,189.247 96.800 C 191.069 96.800,202.713 103.535,208.600 107.994 C 209.790 108.895,217.291 116.400,218.498 117.898 C 219.756 119.458,220.182 119.335,221.987 116.883 C 224.928 112.890,227.487 110.201,229.651 108.828 C 233.330 106.494,233.463 106.395,232.800 106.472 C 232.470 106.511,230.980 105.970,229.490 105.271 C 227.999 104.572,226.550 104.000,226.270 104.000 C 225.989 104.000,225.589 103.844,225.380 103.653 C 224.206 102.583,211.880 99.253,204.400 97.985 C 202.970 97.742,200.931 97.377,199.869 97.172 C 198.808 96.967,197.153 96.800,196.193 96.800 C 195.233 96.800,194.336 96.620,194.200 96.400 C 194.043 96.147,195.085 96.000,197.043 96.000 C 201.598 96.000,200.500 95.737,195.000 95.510 C 190.992 95.346,190.451 95.388,191.720 95.770 M247.800 100.000 C 247.664 100.220,247.823 100.400,248.153 100.400 C 248.483 100.400,248.864 100.220,249.000 100.000 C 249.136 99.780,248.977 99.600,248.647 99.600 C 248.317 99.600,247.936 99.780,247.800 100.000 M301.000 100.000 C 300.860 100.227,301.196 100.400,301.776 100.400 C 302.339 100.400,302.800 100.220,302.800 100.000 C 302.800 99.780,302.451 99.600,302.024 99.600 C 301.597 99.600,301.136 99.780,301.000 100.000 M157.900 100.282 C 158.395 100.378,159.205 100.378,159.700 100.282 C 160.195 100.187,159.790 100.109,158.800 100.109 C 157.810 100.109,157.405 100.187,157.900 100.282 M163.305 100.287 C 163.914 100.379,164.814 100.377,165.305 100.282 C 165.797 100.187,165.300 100.111,164.200 100.114 C 163.100 100.117,162.697 100.195,163.305 100.287 M305.600 100.800 C 305.600 101.020,305.870 101.200,306.200 101.200 C 306.530 101.200,306.800 101.020,306.800 100.800 C 306.800 100.580,306.530 100.400,306.200 100.400 C 305.870 100.400,305.600 100.580,305.600 100.800 M99.200 103.200 C 99.200 103.420,99.470 103.600,99.800 103.600 C 100.130 103.600,100.400 103.420,100.400 103.200 C 100.400 102.980,100.130 102.800,99.800 102.800 C 99.470 102.800,99.200 102.980,99.200 103.200 M106.000 104.800 C 106.000 105.020,106.821 105.200,107.824 105.200 C 108.937 105.200,109.551 105.044,109.400 104.800 C 109.264 104.580,108.443 104.400,107.576 104.400 C 106.709 104.400,106.000 104.580,106.000 104.800 M110.950 104.880 C 110.842 105.056,111.843 105.200,113.176 105.200 C 114.509 105.200,115.600 105.044,115.600 104.852 C 115.600 104.417,111.220 104.444,110.950 104.880 M80.667 105.467 C 80.252 105.882,80.353 107.200,80.800 107.200 C 81.020 107.200,81.200 106.750,81.200 106.200 C 81.200 105.153,81.108 105.026,80.667 105.467 M266.328 109.100 C 272.118 109.162,281.478 109.162,287.128 109.100 C 292.778 109.037,288.040 108.986,276.600 108.986 C 265.160 108.986,260.538 109.037,266.328 109.100 M80.400 113.576 C 80.400 114.249,80.580 114.800,80.800 114.800 C 81.020 114.800,81.200 114.361,81.200 113.824 C 81.200 113.287,81.020 112.736,80.800 112.600 C 80.567 112.456,80.400 112.863,80.400 113.576 M116.378 118.700 L 115.000 120.200 116.500 118.822 C 117.896 117.538,118.184 117.200,117.878 117.200 C 117.812 117.200,117.137 117.875,116.378 118.700 M232.000 119.400 C 231.028 120.390,230.323 121.200,230.433 121.200 C 230.543 121.200,231.428 120.390,232.400 119.400 C 233.372 118.410,234.077 117.600,233.967 117.600 C 233.857 117.600,232.972 118.410,232.000 119.400 M70.000 121.600 C 69.555 121.888,69.793 121.989,70.924 121.994 C 71.839 121.998,72.348 121.840,72.200 121.600 C 71.888 121.094,70.782 121.094,70.000 121.600 M67.260 122.642 C 66.531 123.466,67.000 123.857,67.781 123.076 C 68.121 122.736,68.400 122.354,68.400 122.229 C 68.400 121.809,67.806 122.024,67.260 122.642 M66.000 125.000 C 66.000 125.330,66.180 125.600,66.400 125.600 C 66.620 125.600,66.800 125.330,66.800 125.000 C 66.800 124.670,66.620 124.400,66.400 124.400 C 66.180 124.400,66.000 124.670,66.000 125.000 M79.200 124.800 C 79.200 125.020,79.470 125.200,79.800 125.200 C 80.130 125.200,80.400 125.020,80.400 124.800 C 80.400 124.580,80.130 124.400,79.800 124.400 C 79.470 124.400,79.200 124.580,79.200 124.800 M83.200 125.600 C 83.200 125.820,83.830 126.000,84.600 126.000 C 85.370 126.000,86.000 125.820,86.000 125.600 C 86.000 125.380,85.370 125.200,84.600 125.200 C 83.830 125.200,83.200 125.380,83.200 125.600 M66.000 134.576 C 66.000 134.893,66.180 135.264,66.400 135.400 C 66.620 135.536,66.800 135.277,66.800 134.824 C 66.800 134.371,66.620 134.000,66.400 134.000 C 66.180 134.000,66.000 134.259,66.000 134.576 M338.008 155.986 C 338.021 167.399,338.176 174.739,338.399 174.600 C 338.922 174.277,338.911 137.716,338.388 137.392 C 338.120 137.227,337.993 143.452,338.008 155.986 M66.800 138.200 C 66.800 138.530,66.980 138.800,67.200 138.800 C 67.420 138.800,67.600 138.530,67.600 138.200 C 67.600 137.870,67.420 137.600,67.200 137.600 C 66.980 137.600,66.800 137.870,66.800 138.200 M146.341 139.560 C 143.024 141.685,140.680 144.303,139.055 147.697 C 137.732 150.459,137.488 153.200,138.565 153.200 C 138.910 153.200,139.233 153.809,139.395 154.769 C 139.860 157.525,141.495 157.348,141.877 154.500 C 142.113 152.742,141.547 152.014,140.573 152.823 C 139.719 153.531,139.334 152.917,139.984 151.882 C 140.288 151.397,141.212 149.636,142.037 147.968 C 144.701 142.582,146.985 140.765,151.212 140.668 L 153.500 140.615 152.529 139.342 C 150.778 137.047,150.234 137.066,146.341 139.560 M143.832 153.300 C 142.010 159.687,143.746 166.474,148.437 171.303 C 150.711 173.644,150.870 174.857,148.819 174.206 C 148.231 174.020,148.000 174.123,148.000 174.573 C 148.000 174.918,148.180 175.200,148.400 175.200 C 148.620 175.200,148.800 175.520,148.800 175.911 C 148.800 177.225,150.002 178.486,151.013 178.232 C 152.208 177.932,153.301 178.359,153.046 179.025 C 152.653 180.048,158.124 180.556,163.768 180.021 C 168.921 179.533,168.401 179.889,167.905 177.187 L 167.498 174.974 162.334 175.135 C 153.486 175.410,148.635 172.856,145.390 166.212 C 143.248 161.826,143.087 153.613,145.143 153.594 C 145.713 153.589,145.721 153.537,145.200 153.200 C 144.388 152.675,144.002 152.704,143.832 153.300 M66.000 155.200 C 66.000 155.420,66.270 155.600,66.600 155.600 C 66.930 155.600,67.200 155.420,67.200 155.200 C 67.200 154.980,66.930 154.800,66.600 154.800 C 66.270 154.800,66.000 154.980,66.000 155.200 M63.600 156.000 C 63.600 156.220,63.971 156.400,64.424 156.400 C 64.877 156.400,65.136 156.220,65.000 156.000 C 64.864 155.780,64.493 155.600,64.176 155.600 C 63.859 155.600,63.600 155.780,63.600 156.000 M61.400 156.800 C 61.264 157.020,61.423 157.200,61.753 157.200 C 62.083 157.200,62.464 157.020,62.600 156.800 C 62.736 156.580,62.577 156.400,62.247 156.400 C 61.917 156.400,61.536 156.580,61.400 156.800 M59.260 157.842 C 58.531 158.666,59.000 159.057,59.781 158.276 C 60.121 157.936,60.400 157.554,60.400 157.429 C 60.400 157.009,59.806 157.224,59.260 157.842 M140.984 162.427 C 140.839 162.661,140.816 162.949,140.933 163.067 C 141.220 163.353,142.000 162.848,142.000 162.376 C 142.000 161.865,141.309 161.899,140.984 162.427 M139.954 163.900 C 139.929 164.285,139.847 165.131,139.772 165.780 C 139.609 167.189,140.097 167.889,141.186 167.808 C 141.994 167.749,142.860 167.200,142.146 167.200 C 141.933 167.200,141.741 166.565,141.719 165.788 C 141.662 163.796,140.072 162.094,139.954 163.900 M143.067 169.467 C 142.597 169.936,142.781 170.800,143.351 170.800 C 144.285 170.800,144.934 169.737,144.177 169.447 C 143.383 169.142,143.392 169.142,143.067 169.467 M146.400 172.351 C 146.400 172.544,146.670 172.926,147.000 173.200 C 147.651 173.741,147.733 173.611,147.357 172.633 C 147.100 171.963,146.400 171.757,146.400 172.351 M215.500 172.282 C 215.995 172.378,216.805 172.378,217.300 172.282 C 217.795 172.187,217.390 172.109,216.400 172.109 C 215.410 172.109,215.005 172.187,215.500 172.282 M76.651 178.317 C 76.544 178.491,76.803 178.660,77.228 178.692 C 77.652 178.724,78.000 178.581,78.000 178.375 C 78.000 177.920,76.925 177.873,76.651 178.317 M337.200 179.800 C 337.200 180.130,337.380 180.400,337.600 180.400 C 337.820 180.400,338.000 180.130,338.000 179.800 C 338.000 179.470,337.820 179.200,337.600 179.200 C 337.380 179.200,337.200 179.470,337.200 179.800 M195.450 187.815 C 195.152 188.591,195.941 188.903,197.662 188.692 C 198.878 188.543,198.846 188.522,197.313 188.464 C 195.992 188.414,195.675 188.270,195.855 187.800 C 195.982 187.470,195.996 187.200,195.886 187.200 C 195.776 187.200,195.579 187.477,195.450 187.815 M199.800 189.200 C 200.240 189.389,201.050 189.538,201.600 189.532 L 202.600 189.520 201.600 189.200 C 201.050 189.024,200.240 188.874,199.800 188.868 L 199.000 188.856 199.800 189.200 M202.800 189.761 C 202.800 189.850,204.015 190.310,205.500 190.785 C 206.985 191.259,208.470 191.749,208.800 191.874 C 209.199 192.024,209.266 191.967,209.000 191.702 C 208.333 191.040,202.800 189.307,202.800 189.761 M209.600 192.153 C 209.600 192.237,210.743 193.051,212.140 193.961 C 215.391 196.079,219.916 200.747,221.580 203.700 C 222.964 206.155,223.661 206.866,222.560 204.700 C 220.480 200.606,216.606 196.441,211.928 193.269 C 210.157 192.069,209.600 191.802,209.600 192.153 M330.460 194.642 C 329.731 195.466,330.200 195.857,330.981 195.076 C 331.321 194.736,331.600 194.354,331.600 194.229 C 331.600 193.809,331.006 194.024,330.460 194.642 M75.079 195.757 C 74.915 196.174,74.875 196.609,74.991 196.724 C 75.355 197.089,75.676 196.491,75.524 195.731 C 75.383 195.035,75.362 195.036,75.079 195.757 M195.800 195.600 C 196.240 195.789,196.870 195.944,197.200 195.944 C 197.578 195.944,197.504 195.817,197.000 195.600 C 196.560 195.411,195.930 195.256,195.600 195.256 C 195.222 195.256,195.296 195.383,195.800 195.600 M192.865 198.400 C 192.807 200.379,193.572 205.135,194.258 207.059 C 194.842 208.698,196.233 209.663,200.299 211.248 C 205.466 213.262,216.000 213.944,216.000 212.264 C 216.000 211.016,211.492 204.014,210.682 204.004 C 210.507 204.002,210.993 204.825,211.762 205.832 C 212.532 206.840,213.394 208.190,213.678 208.832 C 213.963 209.475,214.331 210.000,214.498 210.000 C 214.664 210.000,214.800 210.324,214.800 210.720 C 214.800 211.116,215.016 211.656,215.280 211.920 C 216.388 213.028,205.358 212.406,202.200 211.183 C 201.760 211.013,200.150 210.394,198.623 209.807 C 195.682 208.679,194.833 207.947,194.813 206.524 C 194.806 206.042,194.644 205.551,194.454 205.433 C 194.054 205.186,193.629 202.977,193.219 199.000 L 192.929 196.200 192.865 198.400 M326.500 199.398 C 325.931 200.045,325.861 200.400,326.304 200.400 C 326.471 200.400,326.832 200.040,327.107 199.600 C 327.678 198.687,327.251 198.545,326.500 199.398 M74.208 202.787 C 73.883 203.312,74.125 207.570,74.467 207.359 C 74.720 207.202,74.812 202.400,74.561 202.400 C 74.499 202.400,74.339 202.574,74.208 202.787 M223.214 206.454 C 223.206 206.594,223.463 207.314,223.784 208.054 C 224.106 208.794,224.369 209.130,224.370 208.800 C 224.372 208.224,223.243 205.934,223.214 206.454 M203.000 208.400 C 202.708 208.872,203.087 209.600,203.624 209.600 C 203.831 209.600,204.000 209.240,204.000 208.800 C 204.000 207.956,203.418 207.724,203.000 208.400 M265.959 211.915 C 258.633 218.710,254.282 221.935,249.200 224.339 C 242.205 227.648,236.460 229.847,233.000 230.543 C 232.340 230.676,230.580 231.049,229.089 231.373 C 218.818 233.606,214.631 231.059,218.745 225.079 C 220.783 222.118,220.896 222.176,213.100 222.189 C 207.101 222.199,205.692 222.073,202.306 221.227 C 197.806 220.103,197.739 220.125,198.657 222.450 C 201.731 230.234,207.707 236.222,218.321 242.149 C 221.851 244.120,223.319 244.964,226.400 246.796 C 228.665 248.142,244.508 256.000,244.957 256.000 C 245.096 256.000,245.972 256.333,246.904 256.739 C 247.837 257.146,250.490 258.118,252.800 258.899 C 255.110 259.681,258.080 260.721,259.400 261.212 C 260.720 261.703,262.340 262.251,263.000 262.430 C 263.660 262.608,264.830 262.929,265.600 263.143 C 266.370 263.356,268.080 263.830,269.400 264.195 C 274.333 265.561,279.404 266.800,280.057 266.800 C 281.245 266.800,288.593 255.824,291.036 250.400 C 291.581 249.190,292.192 247.840,292.394 247.400 C 295.364 240.932,296.232 238.851,297.541 235.058 C 298.388 232.606,299.309 229.790,299.587 228.800 C 299.865 227.810,300.230 226.550,300.397 226.000 C 301.477 222.446,303.406 209.857,302.977 209.163 C 302.849 208.955,295.600 208.800,286.035 208.800 L 269.318 208.800 265.959 211.915 M312.406 210.300 C 312.411 211.157,312.498 211.268,312.800 210.800 C 313.306 210.017,313.306 209.200,312.800 209.200 C 312.580 209.200,312.403 209.695,312.406 210.300 M311.600 216.800 C 311.600 217.547,311.707 217.653,312.080 217.280 C 312.453 216.907,312.453 216.693,312.080 216.320 C 311.707 215.947,311.600 216.053,311.600 216.800 M74.359 220.100 C 74.081 220.787,74.143 223.241,74.444 223.427 C 74.689 223.579,74.804 222.971,74.746 221.836 C 74.665 220.273,74.532 219.675,74.359 220.100 M309.200 228.376 C 309.200 228.829,309.380 229.200,309.600 229.200 C 309.820 229.200,310.000 228.941,310.000 228.624 C 310.000 228.307,309.820 227.936,309.600 227.800 C 309.380 227.664,309.200 227.923,309.200 228.376 M74.800 229.976 C 74.800 230.429,74.980 230.800,75.200 230.800 C 75.420 230.800,75.600 230.541,75.600 230.224 C 75.600 229.907,75.420 229.536,75.200 229.400 C 74.980 229.264,74.800 229.523,74.800 229.976 M308.400 232.400 C 308.400 233.147,308.507 233.253,308.880 232.880 C 309.253 232.507,309.253 232.293,308.880 231.920 C 308.507 231.547,308.400 231.653,308.400 232.400 " stroke="none" fill="#14e8cb" fill-rule="evenodd"></path><path id="path3" d="M90.800 109.420 C 90.800 109.541,91.077 110.176,91.416 110.832 C 91.755 111.487,91.920 112.205,91.783 112.427 C 91.429 113.000,92.898 116.397,93.500 116.399 C 93.775 116.399,94.000 116.659,94.000 116.976 C 94.000 117.898,94.790 118.133,95.557 117.439 C 96.511 116.575,96.621 116.602,98.533 118.152 C 99.851 119.220,100.690 119.555,102.546 119.750 L 104.891 119.997 106.546 118.278 C 107.456 117.332,108.609 116.067,109.109 115.466 L 110.018 114.374 105.895 114.640 C 100.032 115.019,95.707 113.643,92.613 110.413 C 91.538 109.292,90.800 108.887,90.800 109.420 M150.200 111.404 C 136.524 114.078,122.575 121.080,113.154 130.000 C 112.573 130.550,111.670 131.360,111.149 131.800 C 109.999 132.770,107.553 135.690,106.296 137.594 C 105.790 138.361,104.978 139.187,104.491 139.430 C 104.004 139.672,103.275 140.170,102.870 140.536 C 102.466 140.902,102.039 141.105,101.921 140.987 C 101.421 140.488,98.288 148.663,96.780 154.400 C 96.248 156.426,95.679 158.214,95.189 159.400 C 94.819 160.295,93.658 165.100,93.327 167.104 C 93.208 167.821,92.951 168.506,92.756 168.627 C 92.560 168.748,92.400 169.636,92.400 170.600 C 92.400 171.564,92.240 172.452,92.044 172.573 C 91.849 172.694,91.593 173.379,91.476 174.096 C 91.360 174.813,90.972 176.926,90.615 178.792 C 90.166 181.137,90.049 183.050,90.234 184.992 C 90.382 186.536,90.521 190.545,90.544 193.900 C 90.581 199.448,90.832 201.184,91.324 199.300 C 91.425 198.915,91.529 200.760,91.555 203.400 C 91.677 215.451,92.697 224.316,94.595 229.800 C 94.900 230.680,95.252 232.040,95.378 232.822 C 95.504 233.605,95.966 234.948,96.404 235.807 C 96.842 236.666,97.200 237.570,97.200 237.815 C 97.200 238.060,97.623 238.658,98.140 239.144 C 99.127 240.071,99.560 239.887,100.125 238.300 C 100.532 237.159,102.601 237.935,102.782 239.296 C 102.892 240.117,103.337 240.800,103.762 240.800 C 104.043 240.800,104.248 241.418,104.260 242.300 C 104.299 245.097,106.512 249.496,107.683 249.106 C 108.373 248.876,108.099 245.587,107.317 244.715 C 106.702 244.029,106.732 243.863,107.810 242.000 C 108.128 241.450,108.391 240.121,108.394 239.046 C 108.397 237.972,108.567 236.442,108.772 235.646 C 108.976 234.851,109.375 233.120,109.657 231.800 C 110.384 228.405,114.081 221.251,116.397 218.756 C 121.419 213.350,123.084 212.523,125.517 214.227 C 127.104 215.339,128.503 220.800,127.200 220.800 C 126.980 220.800,126.800 221.222,126.800 221.739 C 126.800 222.255,126.491 223.290,126.113 224.039 C 125.321 225.610,125.289 234.448,126.060 238.400 C 126.644 241.386,128.769 247.934,129.252 248.232 C 129.467 248.365,130.077 249.457,130.609 250.659 C 131.613 252.930,132.407 254.104,134.846 256.926 C 135.642 257.847,136.592 259.185,136.957 259.900 C 137.322 260.615,137.789 261.200,137.995 261.200 C 138.201 261.200,139.591 262.751,141.085 264.647 C 142.578 266.542,144.026 268.297,144.301 268.547 C 144.577 268.796,145.927 270.041,147.301 271.314 C 148.676 272.586,151.216 274.656,152.948 275.914 C 154.679 277.171,157.279 279.232,158.725 280.494 C 161.298 282.737,164.998 284.502,165.547 283.748 C 166.354 282.639,172.295 284.172,174.938 286.172 C 175.989 286.967,179.982 288.951,183.400 290.377 C 183.840 290.561,185.280 291.162,186.600 291.714 C 187.920 292.266,189.450 292.847,190.000 293.006 C 190.550 293.165,191.270 293.514,191.600 293.781 C 192.576 294.573,202.611 298.679,205.903 299.634 C 208.371 300.350,208.416 299.847,206.094 297.490 C 199.596 290.895,202.446 281.669,211.000 281.608 C 213.208 281.592,218.800 282.685,222.400 283.837 C 227.902 285.596,232.979 286.914,234.983 287.102 L 236.966 287.288 235.669 286.197 C 232.974 283.929,232.459 281.102,234.300 278.684 C 235.763 276.762,235.960 276.713,239.312 277.455 C 240.900 277.807,242.920 278.243,243.800 278.424 C 244.680 278.605,246.300 278.949,247.400 279.188 C 250.937 279.955,259.673 280.792,264.191 280.796 L 268.582 280.800 270.887 278.341 C 273.279 275.787,273.331 274.853,271.084 274.813 C 270.690 274.806,269.160 274.432,267.684 273.982 C 266.208 273.532,264.280 272.966,263.400 272.724 C 259.277 271.592,250.126 268.306,246.855 266.784 C 245.455 266.133,243.948 265.600,243.505 265.600 C 242.708 265.600,234.915 262.786,231.545 261.282 C 230.585 260.854,228.270 259.830,226.400 259.008 C 222.272 257.192,216.376 254.324,214.200 253.072 C 213.320 252.566,211.790 251.699,210.800 251.144 C 209.810 250.589,206.605 248.664,203.678 246.865 C 200.751 245.066,197.241 243.014,195.878 242.305 C 194.515 241.595,191.473 239.752,189.117 238.208 C 186.762 236.663,183.162 234.340,181.117 233.044 C 179.073 231.748,175.928 229.725,174.128 228.549 C 160.755 219.805,151.691 216.607,140.268 216.603 C 132.389 216.600,132.000 216.474,132.000 213.925 C 132.000 207.926,147.738 206.493,158.600 211.502 C 163.824 213.911,168.663 216.906,172.942 220.376 C 174.450 221.599,176.520 223.098,177.542 223.707 L 179.400 224.813 177.900 223.464 C 177.075 222.722,176.399 221.954,176.398 221.758 C 176.396 221.561,176.144 220.919,175.837 220.331 C 172.029 213.031,175.602 199.135,183.265 191.446 C 184.117 190.592,185.069 189.332,185.381 188.646 C 185.693 187.961,186.501 186.158,187.176 184.640 C 189.442 179.548,192.522 175.244,196.201 172.030 C 198.070 170.396,199.600 168.911,199.600 168.730 C 199.600 168.548,199.870 168.400,200.200 168.400 C 200.530 168.400,200.800 168.220,200.800 168.000 C 200.800 167.780,201.160 167.600,201.600 167.600 C 202.040 167.600,202.400 167.460,202.400 167.288 C 202.400 166.915,207.147 164.678,209.400 163.990 C 210.280 163.722,211.313 163.344,211.695 163.151 C 212.077 162.958,214.278 162.800,216.587 162.800 L 220.785 162.800 221.025 161.700 C 221.158 161.095,221.431 160.078,221.633 159.440 C 221.835 158.802,222.000 158.240,222.000 158.191 C 222.000 158.142,221.302 157.991,220.450 157.854 C 218.853 157.599,218.082 156.537,218.088 154.600 C 218.110 147.885,208.253 130.757,201.295 125.419 C 184.713 112.697,167.597 108.002,150.200 111.404 M253.600 119.043 C 244.423 120.492,237.850 124.521,233.736 131.223 C 232.059 133.954,230.400 138.270,230.400 139.901 C 230.400 140.478,230.231 140.743,229.967 140.580 C 229.729 140.432,229.790 140.827,230.103 141.456 C 231.975 145.221,232.056 161.785,230.226 166.407 C 230.075 166.789,230.620 167.695,231.693 168.845 C 234.253 171.589,235.600 173.167,235.600 173.420 C 235.600 173.545,236.115 174.311,236.743 175.123 C 237.936 176.664,239.239 179.727,240.009 182.800 C 240.257 183.790,240.633 185.273,240.845 186.095 C 241.711 189.461,241.166 200.017,239.967 203.100 C 239.701 203.785,239.758 204.000,240.209 204.000 C 240.534 204.000,240.800 204.208,240.800 204.462 C 240.800 204.743,241.080 204.670,241.514 204.278 C 241.906 203.923,243.211 203.158,244.414 202.579 C 250.013 199.882,253.500 197.758,257.258 194.754 C 258.603 193.679,260.754 192.265,262.038 191.612 L 264.373 190.426 278.287 190.365 C 302.002 190.261,305.010 189.898,310.709 186.455 C 313.678 184.661,318.000 180.722,318.000 179.810 C 318.000 179.166,319.702 178.506,319.892 179.076 C 319.962 179.287,320.534 179.383,321.162 179.291 C 321.791 179.199,322.434 179.331,322.591 179.585 C 322.792 179.911,323.025 179.845,323.378 179.363 C 323.957 178.571,324.870 178.945,324.773 179.935 C 324.655 181.143,324.790 181.173,325.800 180.164 C 326.350 179.614,326.800 178.800,326.800 178.356 C 326.800 177.911,326.967 177.235,327.172 176.852 C 327.378 176.468,327.601 168.714,327.672 159.477 C 327.742 150.302,327.747 142.957,327.681 143.154 C 327.166 144.710,323.500 140.996,322.402 137.807 C 319.352 128.940,312.206 122.357,302.800 119.750 C 300.354 119.071,257.335 118.454,253.600 119.043 M160.000 131.783 C 160.000 132.257,160.841 132.579,164.950 133.678 C 166.023 133.965,166.987 134.425,167.093 134.700 C 167.350 135.368,168.010 135.333,168.556 134.621 C 168.934 134.129,169.179 134.189,170.200 135.020 L 171.400 135.996 170.300 135.998 C 169.695 135.999,169.200 136.187,169.200 136.415 C 169.200 136.676,170.162 136.766,171.800 136.658 C 174.295 136.494,175.283 137.007,174.000 137.800 C 173.048 138.389,173.946 139.811,176.525 141.800 C 177.096 142.240,177.571 142.803,177.582 143.051 C 177.592 143.299,177.894 143.746,178.254 144.045 C 179.336 144.943,180.575 147.256,181.337 149.800 C 181.732 151.120,182.223 152.753,182.428 153.428 C 183.717 157.683,182.625 165.229,179.962 170.477 C 179.103 172.170,178.400 173.922,178.400 174.372 C 178.400 180.709,171.191 186.875,162.219 188.212 C 151.706 189.778,141.888 185.799,135.086 177.217 C 133.771 175.558,132.544 174.103,132.360 173.984 C 131.759 173.597,129.767 168.279,128.994 165.000 C 126.390 153.946,131.384 141.857,141.200 135.454 C 142.410 134.664,143.894 133.620,144.498 133.133 C 145.320 132.469,146.097 132.255,147.598 132.277 C 148.699 132.294,149.600 132.136,149.600 131.926 C 149.600 131.697,150.839 131.638,152.700 131.777 C 154.862 131.939,156.161 131.849,156.993 131.478 C 158.341 130.878,160.000 131.046,160.000 131.783 M76.600 134.749 C 77.480 135.636,78.498 136.370,78.863 136.380 C 79.325 136.394,79.462 136.642,79.316 137.200 C 79.164 137.779,79.313 138.014,79.853 138.052 C 80.264 138.080,81.077 138.133,81.660 138.170 C 82.243 138.206,82.963 138.432,83.260 138.672 C 84.458 139.639,88.761 140.167,89.062 139.383 C 89.347 138.639,90.301 138.625,90.471 139.362 C 90.673 140.242,93.133 138.859,93.939 137.412 C 94.302 136.759,95.014 135.883,95.521 135.466 C 96.791 134.422,96.556 134.368,93.797 135.068 C 85.294 137.224,82.603 137.110,77.367 134.375 L 75.000 133.138 76.600 134.749 M255.844 145.791 C 265.111 148.543,262.814 162.800,253.102 162.800 C 242.891 162.800,241.497 147.989,251.487 145.637 C 253.619 145.135,253.636 145.135,255.844 145.791 M283.055 146.383 C 286.150 147.752,288.340 151.939,287.810 155.473 C 287.043 160.586,280.166 164.329,275.713 162.057 C 265.233 156.711,272.300 141.626,283.055 146.383 M307.240 145.666 C 316.823 148.954,314.283 163.564,304.276 162.720 C 294.524 161.897,293.586 147.444,303.162 145.573 C 305.329 145.149,305.762 145.159,307.240 145.666 M84.800 157.518 C 83.370 158.334,81.750 159.304,81.200 159.673 C 79.366 160.905,74.625 162.472,72.539 162.537 C 70.160 162.610,70.078 162.982,72.360 163.347 C 75.165 163.796,81.537 161.569,84.147 159.228 C 84.616 158.807,85.630 157.914,86.400 157.243 C 88.205 155.671,87.964 155.712,84.800 157.518 M144.000 176.800 C 144.550 177.230,145.159 177.586,145.354 177.591 C 145.549 177.596,145.250 177.240,144.691 176.800 C 144.131 176.360,143.522 176.004,143.337 176.009 C 143.152 176.014,143.450 176.370,144.000 176.800 M149.826 180.442 C 150.031 180.774,154.036 181.697,154.267 181.466 C 154.350 181.383,153.344 181.053,152.032 180.732 C 150.719 180.411,149.726 180.281,149.826 180.442 M320.800 181.200 C 320.800 181.640,320.980 182.000,321.200 182.000 C 321.420 182.000,321.600 181.640,321.600 181.200 C 321.600 180.760,321.420 180.400,321.200 180.400 C 320.980 180.400,320.800 180.760,320.800 181.200 M322.400 181.957 C 322.400 182.154,322.670 182.418,323.000 182.545 C 323.365 182.685,323.600 182.545,323.600 182.187 C 323.600 181.864,323.330 181.600,323.000 181.600 C 322.670 181.600,322.400 181.761,322.400 181.957 M158.305 182.283 C 158.802 182.379,159.522 182.375,159.905 182.275 C 160.287 182.175,159.880 182.096,159.000 182.101 C 158.120 182.105,157.807 182.187,158.305 182.283 " stroke="none" fill="#f6c007" fill-rule="evenodd"></path><path id="path4" d="M90.418 109.680 C 90.356 114.854,93.836 120.790,97.600 121.932 C 102.587 123.445,104.230 123.074,106.594 119.901 C 107.618 118.525,109.299 116.519,110.328 115.442 L 112.200 113.484 110.800 114.202 C 110.030 114.596,109.136 115.297,108.813 115.760 C 108.490 116.222,107.475 117.364,106.558 118.298 L 104.891 119.997 102.546 119.750 C 100.690 119.555,99.851 119.220,98.533 118.152 C 96.621 116.602,96.511 116.575,95.557 117.439 C 94.790 118.133,94.000 117.898,94.000 116.976 C 94.000 116.659,93.766 116.400,93.480 116.400 C 92.905 116.400,91.846 113.960,91.744 112.400 C 91.708 111.850,91.398 110.680,91.057 109.800 L 90.435 108.200 90.418 109.680 M156.993 131.478 C 156.161 131.849,154.862 131.939,152.700 131.777 C 150.839 131.638,149.600 131.697,149.600 131.926 C 149.600 132.136,148.699 132.294,147.598 132.277 C 146.097 132.255,145.320 132.469,144.498 133.133 C 143.894 133.620,142.410 134.664,141.200 135.454 C 131.384 141.857,126.390 153.946,128.994 165.000 C 129.767 168.279,131.759 173.597,132.360 173.984 C 132.544 174.103,133.771 175.558,135.086 177.217 C 141.888 185.799,151.706 189.778,162.219 188.212 C 171.191 186.875,178.400 180.709,178.400 174.372 C 178.400 173.922,179.103 172.170,179.962 170.477 C 182.625 165.229,183.717 157.683,182.428 153.428 C 182.223 152.753,181.732 151.120,181.337 149.800 C 180.575 147.256,179.336 144.943,178.254 144.045 C 177.894 143.746,177.592 143.299,177.582 143.051 C 177.571 142.803,177.096 142.240,176.525 141.800 C 173.946 139.811,173.048 138.389,174.000 137.800 C 175.283 137.007,174.295 136.494,171.800 136.658 C 170.162 136.766,169.200 136.676,169.200 136.415 C 169.200 136.187,169.695 135.999,170.300 135.998 L 171.400 135.996 170.200 135.020 C 169.179 134.189,168.934 134.129,168.556 134.621 C 168.010 135.333,167.350 135.368,167.093 134.700 C 166.987 134.425,166.023 133.965,164.950 133.678 C 160.841 132.579,160.000 132.257,160.000 131.783 C 160.000 131.046,158.341 130.878,156.993 131.478 M74.604 132.600 C 74.762 133.040,75.036 134.002,75.212 134.738 C 76.315 139.343,82.543 145.140,85.800 144.593 C 86.680 144.445,88.432 144.194,89.692 144.036 C 90.953 143.878,92.058 143.670,92.148 143.574 C 92.416 143.287,96.000 136.718,96.000 136.513 C 96.000 136.409,96.387 135.780,96.860 135.115 C 97.638 134.023,97.648 133.949,96.960 134.347 C 95.714 135.067,94.641 136.157,93.939 137.415 C 93.132 138.860,90.673 140.241,90.471 139.362 C 90.301 138.625,89.347 138.639,89.062 139.383 C 88.761 140.167,84.458 139.639,83.260 138.672 C 82.963 138.432,82.243 138.206,81.660 138.170 C 81.077 138.133,80.264 138.080,79.853 138.052 C 79.313 138.014,79.164 137.779,79.316 137.200 C 79.452 136.678,79.328 136.400,78.959 136.400 C 78.225 136.400,76.106 134.532,75.102 133.000 C 74.669 132.340,74.445 132.160,74.604 132.600 M103.800 136.000 C 103.459 136.660,103.269 137.200,103.379 137.200 C 103.489 137.200,103.859 136.660,104.200 136.000 C 104.541 135.340,104.731 134.800,104.621 134.800 C 104.511 134.800,104.141 135.340,103.800 136.000 M164.726 136.575 C 179.255 140.443,186.547 156.905,179.547 170.038 C 177.384 174.097,171.005 179.600,168.463 179.600 C 168.014 179.600,167.545 179.766,167.420 179.968 C 165.542 183.006,152.990 182.562,148.051 179.283 C 146.825 178.469,145.355 177.533,144.784 177.202 C 142.766 176.030,140.009 172.529,138.453 169.162 C 130.024 150.918,145.676 131.505,164.726 136.575 M101.478 140.605 C 101.112 141.372,100.895 142.000,100.996 142.000 C 101.270 142.000,102.484 139.551,102.301 139.368 C 102.214 139.281,101.844 139.838,101.478 140.605 M229.827 141.400 C 231.162 145.238,231.542 155.790,230.548 161.400 C 229.376 168.014,229.313 167.354,231.324 169.485 C 240.626 179.337,243.406 193.354,238.486 205.600 C 236.217 211.248,235.023 213.803,233.307 216.680 C 230.357 221.628,230.501 221.722,237.082 219.150 C 244.988 216.058,254.426 209.707,260.442 203.428 L 264.685 199.000 286.842 198.781 C 310.927 198.542,309.310 198.700,314.363 196.091 C 321.085 192.622,324.302 188.869,326.737 181.661 L 328.000 177.922 327.909 161.461 L 327.818 145.000 327.572 160.800 C 327.308 177.710,327.210 178.753,325.750 180.214 C 324.789 181.175,324.655 181.136,324.773 179.935 C 324.870 178.945,323.957 178.571,323.378 179.363 C 323.025 179.845,322.792 179.911,322.591 179.585 C 322.434 179.331,321.791 179.199,321.162 179.291 C 320.534 179.383,319.962 179.287,319.892 179.076 C 319.702 178.506,318.000 179.166,318.000 179.810 C 318.000 180.722,313.678 184.661,310.709 186.455 C 305.010 189.898,302.002 190.261,278.287 190.365 L 264.373 190.426 262.038 191.612 C 260.754 192.265,258.603 193.679,257.258 194.754 C 253.500 197.758,250.013 199.882,244.414 202.579 C 243.211 203.158,241.906 203.923,241.514 204.278 C 241.080 204.670,240.800 204.743,240.800 204.462 C 240.800 204.208,240.534 204.000,240.209 204.000 C 239.758 204.000,239.701 203.785,239.967 203.100 C 241.166 200.017,241.711 189.461,240.845 186.095 C 240.633 185.273,240.257 183.790,240.009 182.800 C 239.239 179.727,237.936 176.664,236.743 175.123 C 236.115 174.311,235.600 173.545,235.600 173.420 C 235.600 173.167,234.253 171.589,231.693 168.845 C 230.620 167.695,230.075 166.789,230.226 166.407 C 232.050 161.801,231.972 144.911,230.111 141.600 C 229.785 141.020,229.666 140.936,229.827 141.400 M99.012 145.832 C 97.107 150.393,93.107 163.500,91.943 169.000 C 91.169 172.657,90.906 173.742,88.696 182.400 C 87.489 187.130,86.299 192.215,86.051 193.700 C 85.803 195.185,85.378 197.615,85.106 199.100 C 84.423 202.836,84.428 222.858,85.113 226.600 C 86.537 234.379,87.864 239.620,89.618 244.400 C 90.304 246.270,91.133 248.672,91.460 249.738 C 92.137 251.949,94.146 256.330,95.431 258.400 C 95.909 259.170,97.589 261.996,99.164 264.680 C 100.738 267.364,103.450 271.451,105.189 273.761 C 106.928 276.071,108.548 278.330,108.790 278.781 C 110.046 281.129,116.479 288.191,121.559 292.800 C 123.621 294.670,125.958 296.800,126.753 297.534 C 130.319 300.822,140.548 306.833,145.600 308.610 C 153.799 311.493,158.722 313.011,158.993 312.740 C 159.280 312.454,155.481 309.663,153.524 308.721 C 151.928 307.954,149.049 306.113,147.609 304.940 C 147.274 304.667,146.034 303.729,144.853 302.854 C 143.673 301.979,140.631 299.315,138.095 296.932 C 135.558 294.549,132.945 292.150,132.287 291.600 C 128.213 288.191,116.803 271.149,114.479 265.000 C 114.229 264.340,113.647 262.810,113.185 261.600 C 106.483 244.042,108.301 229.457,118.714 217.250 C 124.809 210.104,129.024 215.589,123.648 223.672 C 120.966 227.704,120.113 229.570,118.961 233.920 C 118.287 236.464,118.199 246.356,118.825 249.123 C 120.457 256.339,120.186 255.544,123.581 263.089 C 124.691 265.558,125.600 267.663,125.600 267.768 C 125.600 269.875,139.813 287.312,144.394 290.825 C 145.380 291.581,147.564 293.280,149.248 294.600 C 157.634 301.176,164.641 305.427,170.760 307.650 C 172.652 308.337,174.560 309.039,175.000 309.209 C 180.847 311.473,189.512 313.003,195.549 312.837 C 197.426 312.785,196.861 312.224,192.110 309.419 C 187.357 306.612,181.119 301.972,180.016 300.422 C 176.883 296.022,182.164 292.304,186.175 296.086 C 188.282 298.073,196.710 304.000,197.427 304.000 C 197.499 304.000,198.635 304.632,199.952 305.403 C 203.326 307.381,216.062 312.000,218.140 312.000 C 219.144 312.000,225.497 310.461,227.267 309.790 C 228.074 309.483,229.964 308.949,231.467 308.602 C 236.640 307.408,237.711 306.346,234.600 305.497 C 227.877 303.662,212.563 295.616,208.319 291.688 C 206.894 290.369,206.577 288.791,207.392 287.074 C 208.732 284.249,210.194 284.406,215.094 287.905 C 217.602 289.695,219.154 290.508,225.200 293.194 C 227.730 294.319,230.160 295.402,230.600 295.603 C 234.402 297.332,243.754 299.738,245.673 299.481 C 247.339 299.257,252.405 296.301,253.959 294.644 L 254.918 293.622 253.159 292.871 C 252.192 292.458,250.410 291.879,249.200 291.585 C 242.213 289.885,234.000 284.757,234.000 282.093 C 234.000 278.192,237.122 277.243,241.122 279.931 C 244.005 281.867,249.358 283.998,256.200 285.931 C 263.012 287.856,262.764 287.912,267.033 283.500 C 274.254 276.038,274.932 275.008,272.900 274.588 C 271.522 274.303,266.899 273.115,264.200 272.353 C 261.077 271.470,250.682 267.911,248.037 266.818 C 246.407 266.144,245.008 265.658,244.928 265.738 C 244.494 266.173,257.607 271.133,263.400 272.724 C 264.280 272.966,266.208 273.532,267.684 273.982 C 269.160 274.432,270.690 274.806,271.084 274.813 C 273.331 274.853,273.279 275.787,270.887 278.341 L 268.582 280.800 264.191 280.796 C 259.673 280.792,250.937 279.955,247.400 279.188 C 246.300 278.949,244.680 278.605,243.800 278.424 C 242.920 278.243,240.900 277.807,239.312 277.455 C 235.960 276.713,235.763 276.762,234.300 278.684 C 232.459 281.102,232.974 283.929,235.669 286.197 L 236.966 287.288 234.983 287.102 C 232.979 286.914,227.902 285.596,222.400 283.837 C 218.800 282.685,213.208 281.592,211.000 281.608 C 202.446 281.669,199.596 290.895,206.094 297.490 C 208.416 299.847,208.371 300.350,205.903 299.634 C 202.611 298.679,192.576 294.573,191.600 293.781 C 191.270 293.514,190.550 293.165,190.000 293.006 C 189.450 292.847,187.920 292.266,186.600 291.714 C 185.280 291.162,183.840 290.561,183.400 290.377 C 179.982 288.951,175.989 286.967,174.938 286.172 C 172.295 284.172,166.354 282.639,165.547 283.748 C 164.998 284.502,161.298 282.737,158.725 280.494 C 157.279 279.232,154.679 277.171,152.948 275.914 C 151.216 274.656,148.676 272.586,147.301 271.314 C 145.927 270.041,144.577 268.796,144.301 268.547 C 144.026 268.297,142.578 266.542,141.085 264.647 C 139.591 262.751,138.201 261.200,137.995 261.200 C 137.789 261.200,137.322 260.615,136.957 259.900 C 136.592 259.185,135.642 257.847,134.846 256.926 C 132.407 254.104,131.613 252.930,130.609 250.659 C 130.077 249.457,129.467 248.365,129.252 248.232 C 128.769 247.934,126.644 241.386,126.060 238.400 C 125.289 234.448,125.321 225.610,126.113 224.039 C 126.491 223.290,126.800 222.255,126.800 221.739 C 126.800 221.222,126.980 220.800,127.200 220.800 C 128.503 220.800,127.104 215.339,125.517 214.227 C 123.084 212.523,121.419 213.350,116.397 218.756 C 114.081 221.251,110.384 228.405,109.657 231.800 C 109.375 233.120,108.976 234.851,108.772 235.646 C 108.567 236.442,108.397 237.972,108.394 239.046 C 108.391 240.121,108.128 241.450,107.810 242.000 C 106.732 243.863,106.702 244.029,107.317 244.715 C 108.099 245.587,108.373 248.876,107.683 249.106 C 106.512 249.496,104.299 245.097,104.260 242.300 C 104.248 241.418,104.043 240.800,103.762 240.800 C 103.356 240.800,102.754 239.853,102.746 239.200 C 102.729 237.976,100.512 237.214,100.125 238.300 C 99.560 239.887,99.127 240.071,98.140 239.144 C 97.623 238.658,97.200 238.060,97.200 237.815 C 97.200 237.570,96.842 236.666,96.404 235.807 C 95.966 234.948,95.504 233.605,95.378 232.822 C 95.252 232.040,94.900 230.680,94.595 229.800 C 92.697 224.316,91.677 215.451,91.555 203.400 C 91.529 200.760,91.425 198.915,91.324 199.300 C 90.832 201.184,90.581 199.448,90.544 193.900 C 90.521 190.545,90.382 186.536,90.234 184.992 C 90.049 183.050,90.166 181.137,90.615 178.792 C 90.972 176.926,91.360 174.813,91.476 174.096 C 91.593 173.379,91.849 172.694,92.044 172.573 C 92.240 172.452,92.400 171.564,92.400 170.600 C 92.400 169.636,92.560 168.748,92.756 168.627 C 92.951 168.506,93.208 167.821,93.327 167.104 C 93.658 165.100,94.819 160.295,95.189 159.400 C 95.679 158.213,96.248 156.424,96.780 154.400 C 97.040 153.410,97.861 150.755,98.604 148.500 C 99.950 144.416,100.151 143.108,99.012 145.832 M254.600 145.890 C 261.083 147.857,263.310 154.722,259.015 159.499 C 254.590 164.421,247.046 162.392,245.195 155.783 C 244.151 152.054,247.258 146.948,251.022 146.208 C 251.890 146.037,252.362 145.811,252.071 145.706 C 248.088 144.262,243.015 152.310,244.965 156.978 C 248.127 164.547,258.224 164.507,261.453 156.913 C 263.525 152.040,258.487 144.892,253.227 145.242 C 252.882 145.265,253.500 145.556,254.600 145.890 M276.451 145.781 C 270.727 147.625,268.735 154.709,272.610 159.439 C 276.365 164.020,282.543 163.777,286.257 158.901 C 291.111 152.528,284.203 143.285,276.451 145.781 M306.194 145.867 C 315.601 148.753,314.477 162.400,304.832 162.400 C 295.688 162.400,293.983 148.603,302.815 146.070 C 303.977 145.736,304.039 145.667,303.200 145.643 C 298.137 145.493,294.509 153.742,297.552 158.482 C 303.675 168.021,317.830 159.584,312.181 149.763 C 310.719 147.220,307.456 145.148,305.040 145.228 C 304.578 145.243,305.097 145.531,306.194 145.867 M281.108 146.210 C 289.300 148.643,289.418 159.235,281.283 161.871 C 277.747 163.017,275.520 162.181,272.734 158.664 C 268.971 153.915,272.441 146.249,278.627 145.642 C 278.862 145.619,279.979 145.874,281.108 146.210 M222.101 150.200 C 222.105 151.080,222.187 151.393,222.283 150.895 C 222.379 150.398,222.375 149.678,222.275 149.295 C 222.175 148.913,222.096 149.320,222.101 150.200 M86.773 156.727 C 81.132 162.549,73.770 164.958,69.800 162.280 C 68.759 161.578,68.813 161.695,70.200 163.160 C 73.582 166.731,75.583 167.943,78.913 168.438 C 84.152 169.217,84.276 169.101,86.230 161.579 C 86.828 159.280,87.565 156.905,87.868 156.300 C 88.564 154.914,88.508 154.936,86.773 156.727 M221.666 159.200 C 221.372 160.410,221.045 161.715,220.939 162.100 C 220.771 162.710,220.207 162.800,216.568 162.800 C 214.269 162.800,212.077 162.958,211.695 163.151 C 211.313 163.344,210.280 163.722,209.400 163.990 C 207.147 164.678,202.400 166.915,202.400 167.288 C 202.400 167.460,202.040 167.600,201.600 167.600 C 201.160 167.600,200.800 167.780,200.800 168.000 C 200.800 168.220,200.530 168.400,200.200 168.400 C 199.870 168.400,199.600 168.548,199.600 168.730 C 199.600 168.911,198.070 170.396,196.201 172.030 C 192.522 175.244,189.442 179.548,187.176 184.640 C 186.501 186.158,185.693 187.961,185.381 188.646 C 185.069 189.332,184.117 190.592,183.265 191.446 C 175.602 199.135,172.029 213.031,175.837 220.331 C 176.144 220.919,176.396 221.557,176.398 221.750 C 176.400 222.113,179.507 224.978,180.966 225.963 C 181.425 226.273,181.215 225.904,180.500 225.144 C 177.221 221.657,180.326 218.116,184.009 221.143 C 185.584 222.438,188.490 224.000,189.323 224.000 C 190.751 224.000,189.660 216.242,187.611 211.835 C 177.834 190.799,194.619 163.715,217.600 163.445 L 221.400 163.400 221.906 161.400 C 222.184 160.300,222.364 158.860,222.306 158.200 C 222.218 157.200,222.111 157.367,221.666 159.200 M321.600 181.200 C 321.600 181.640,321.420 182.000,321.200 182.000 C 320.980 182.000,320.800 181.640,320.800 181.200 C 320.800 180.760,320.980 180.400,321.200 180.400 C 321.420 180.400,321.600 180.760,321.600 181.200 M323.600 182.187 C 323.600 182.545,323.365 182.685,323.000 182.545 C 322.670 182.418,322.400 182.154,322.400 181.957 C 322.400 181.761,322.670 181.600,323.000 181.600 C 323.330 181.600,323.600 181.864,323.600 182.187 " stroke="none" fill="#ec850e" fill-rule="evenodd"></path></g></svg>